<?xml version="1.0" encoding="utf-8"?>
<!-- Generator: Adobe Illustrator 18.0.0, SVG Export Plug-In . SVG Version: 6.00 Build 0)  -->
<!DOCTYPE svg PUBLIC "-//W3C//DTD SVG 1.1//EN" "http://www.w3.org/Graphics/SVG/1.1/DTD/svg11.dtd">
<svg width="1100" height="999" viewBox="0 0 1100 999" fill="none" xmlns="http://www.w3.org/2000/svg">
<g filter="url(#filter0_d)">
<path d="M1028.74 606.336L460.507 278.221C444.95 269.264 419.729 269.264 404.25 278.221L72.6786 470.957C57.2 479.914 57.2786 494.529 72.8357 503.486L641.064 831.521C656.621 840.479 681.843 840.479 697.243 831.521L1028.89 638.786C1044.37 629.907 1044.29 615.293 1028.74 606.336Z" fill="#FF7F50"/>
<path d="M1028.97 638.864L697.321 831.6C681.843 840.557 656.7 840.557 641.143 831.6L72.8355 503.564C64.9783 499.007 61.0498 493.114 61.1284 487.143V494.607C61.1284 500.5 65.0569 506.471 72.8355 511.029L641.064 839.064C656.621 848.021 681.843 848.021 697.243 839.064L1028.89 646.329C1036.59 641.85 1040.44 636.036 1040.44 630.143V622.679C1040.44 628.571 1036.59 634.386 1028.97 638.864Z" fill="#FF7F50"/>
<path d="M759.943 323.557V320.571C759.943 314.05 755.386 306.114 749.729 302.893L536.486 179.536C533.657 177.886 531.064 177.729 529.179 178.829C528.314 179.3 527.45 179.85 526.586 180.321L527.293 181.5C527.293 181.5 526.193 181.893 524.621 182.364C525.643 182.364 526.821 182.6 528 183.15C527.529 183.386 527.057 183.7 526.586 183.936L527.293 185.114C527.293 185.114 526.193 185.507 524.621 185.979C526.036 185.979 527.607 186.45 529.257 187.393L742.5 310.75C748 313.893 752.479 321.436 752.714 327.879L752.164 482.586C752.164 484.079 751.929 485.336 751.457 486.357L752.164 486.593C752.086 487.929 751.929 489.029 751.457 489.971L753.107 490.443C754.207 489.814 755.386 489.107 756.486 488.479C758.293 487.379 759.471 485.179 759.471 481.879L760.021 324.186C759.943 323.95 759.943 323.714 759.943 323.557Z" fill="#CACACA"/>
<path d="M756.878 322.3C756.878 315.779 752.321 307.843 746.664 304.621L533.421 181.264C527.764 177.964 523.129 180.636 523.129 187.079L522.578 344.771C522.578 344.929 522.578 345.164 522.578 345.321V348.386C522.578 354.907 527.136 362.843 532.793 366.064L746.036 489.422C751.693 492.722 756.328 490.05 756.328 483.607L756.878 325.914C756.878 325.679 756.878 325.521 756.878 325.286V322.3ZM636.507 251.9C636.743 251.9 636.979 251.979 637.214 252.136L643.264 255.593C643.5 255.75 643.736 255.986 643.971 256.221C643.736 256.221 643.5 256.143 643.264 255.986L637.214 252.529C636.979 252.371 636.743 252.136 636.507 251.9ZM537.271 203.971L742.578 322.536L742.186 466.714L536.878 348.15L537.271 203.971Z" fill="#303030"/>
<path d="M643.264 251.979L637.214 248.521C636.271 247.971 635.486 248.443 635.486 249.543C635.486 250.643 636.271 251.979 637.214 252.529L643.264 255.986C644.207 256.536 644.993 256.064 644.993 254.964C644.993 253.864 644.286 252.529 643.264 251.979ZM642.714 255.2C642.007 254.807 641.379 253.707 641.379 252.843C641.379 251.979 642.007 251.664 642.714 252.057C643.421 252.45 644.05 253.55 644.05 254.414C644.05 255.279 643.5 255.671 642.714 255.2Z" fill="#48484A"/>
<path d="M642.714 252.136C642.007 251.743 641.379 252.057 641.379 252.921C641.379 253.786 642.007 254.807 642.714 255.279C643.421 255.671 644.05 255.357 644.05 254.493C644.05 253.629 643.5 252.529 642.714 252.136Z" fill="#353535"/>
<path d="M742.579 318.921L537.271 200.357L536.879 348.15V353.1L742.186 471.664L742.579 323.871V318.921Z" fill="#48484A"/>
<mask id="mask0" mask-type="alpha" maskUnits="userSpaceOnUse" x="536" y="200" width="207" height="154">
<path d="M536.879 348.15V353.1L742.579 318.921L537.271 200.357L536.879 348.15Z" fill="url(#paint0_linear)"/>
</mask>
<g mask="url(#mask0)">
<path d="M536.879 348.15V353.1L742.579 318.921L537.271 200.357L536.879 348.15Z" fill="url(#paint1_linear)"/>
</g>
<path d="M745.564 488.714L532.479 365.436C526.821 362.136 517.629 362.136 512.05 365.436L375.493 444.636C369.836 447.936 369.914 453.2 375.571 456.5L485.729 520.221L464.829 508.122C465.85 507.493 467.5 507.493 468.521 508.122L499.557 526.036C500.579 526.664 500.579 527.607 499.557 528.236L588.657 579.779C594.314 583.079 603.429 583.079 609.086 579.779L745.643 500.579C751.221 497.279 751.221 492.014 745.564 488.714ZM562.336 510.557L525.957 531.614C524.229 532.636 521.4 532.636 519.671 531.614L458.7 496.414C457.914 495.943 457.443 495.314 457.443 494.607C457.443 493.9 457.914 493.271 458.7 492.8L495.079 471.743C496.807 470.722 499.636 470.722 501.443 471.822L562.179 506.943C563.043 507.414 563.436 508.043 563.436 508.75C563.593 509.379 563.121 510.086 562.336 510.557ZM715.471 495.471L636.9 541.043C635.486 541.829 633.286 541.829 631.95 541.043L602.486 523.993L469.307 446.993L442.357 431.357C440.943 430.572 440.943 429.236 442.357 428.45L520.929 382.879C522.264 382.093 524.543 382.093 525.879 382.879L562.493 404.014L684.593 474.65L715.471 492.486C716.807 493.35 716.807 494.607 715.471 495.471Z" fill="#CACACA"/>
<path d="M715.393 492.564L684.514 474.729L562.414 404.093L525.8 382.957C524.386 382.171 522.186 382.171 520.85 382.957L442.279 428.529C440.943 429.314 440.943 430.65 442.279 431.436L469.15 446.993L602.329 523.993L631.793 541.043C633.129 541.829 635.407 541.829 636.743 541.043L715.314 495.471C716.807 494.607 716.807 493.35 715.393 492.564ZM694.964 485.729L687.5 490.05L675.714 483.214L683.179 478.893L694.964 485.729ZM681.764 478.107L674.3 482.429L662.514 475.593L669.9 471.271L681.764 478.107ZM613.25 477.479L602.564 471.271L613.25 465.064L623.936 471.271L613.25 477.479ZM625.664 472.371L636.35 478.579L625.664 484.786L614.979 478.579L625.664 472.371ZM601.15 470.486L590.464 464.279L601.15 458.071L611.836 464.279L601.15 470.486ZM588.971 463.414L578.286 457.207L588.971 451L599.657 457.207L588.971 463.414ZM576.793 456.421L566.107 450.214L576.793 444.007L587.479 450.214L576.793 456.421ZM564.85 449.507L554.164 443.3L564.85 437.093L575.536 443.3L564.85 449.507ZM552.671 442.514L541.986 436.307L552.671 430.1L563.357 436.307L552.671 442.514ZM540.571 435.443L529.886 429.236L540.571 423.029L551.257 429.236L540.571 435.443ZM529.964 432.064L540.65 438.271L529.964 444.479L519.279 438.271L529.964 432.064ZM542.379 439.214L553.064 445.421L542.379 451.629L531.693 445.421L542.379 439.214ZM554.714 446.286L565.4 452.493L554.714 458.7L544.029 452.493L554.714 446.286ZM567.05 453.514L577.736 459.721L567.05 465.929L556.364 459.721L567.05 453.514ZM579.464 460.586L590.15 466.793L579.464 473L568.779 466.793L579.464 460.586ZM591.957 467.893L602.643 474.1L591.957 480.307L581.271 474.1L591.957 467.893ZM604.293 475.043L614.979 481.25L604.293 487.457L593.607 481.25L604.293 475.043ZM616.707 482.193L627.393 488.4L616.707 494.607L606.021 488.4L616.707 482.193ZM629.2 489.421L639.886 495.629L629.2 501.836L618.514 495.629L629.2 489.421ZM639.336 492.564L650.021 486.357L660.707 492.564L650.021 498.771L639.336 492.564ZM637.843 491.7L627.157 485.493L637.843 479.286L648.529 485.493L637.843 491.7ZM647.743 482.586L635.879 475.75L647.193 469.229L659.057 476.064L647.743 482.586ZM634.7 475.043L622.836 468.207L634.15 461.686L646.014 468.521L634.7 475.043ZM621.421 467.343L609.557 460.507L620.871 453.986L632.736 460.821L621.421 467.343ZM608.143 459.721L596.279 452.886L607.593 446.364L619.457 453.2L608.143 459.721ZM594.864 452.021L583 445.186L594.314 438.664L606.179 445.5L594.864 452.021ZM581.586 444.321L569.721 437.486L581.036 430.964L592.9 437.8L581.586 444.321ZM568.229 436.621L556.364 429.786L567.679 423.264L579.464 430.1L568.229 436.621ZM555.186 429.079L543.4 422.243L554.714 415.721L566.579 422.557L555.186 429.079ZM541.907 421.379L530.043 414.543L541.357 408.021L553.221 414.857L541.907 421.379ZM528.707 413.757L516.843 406.922L528.157 400.4L540.021 407.236L528.707 413.757ZM539.079 422.243L528.393 428.45L517.707 422.243L528.393 416.036L539.079 422.243ZM528.314 431.043L517.629 437.25L506.943 431.043L517.629 424.836L528.314 431.043ZM520.3 441.65L509.614 447.857L498.457 441.414L509.143 435.207L520.3 441.65ZM521.479 442.279L532.636 448.721L521.95 454.929L510.793 448.486L521.479 442.279ZM533.736 449.35L544.893 455.793L534.207 462L523.05 455.557L533.736 449.35ZM546.15 456.579L557.307 463.021L546.621 469.229L535.464 462.786L546.15 456.579ZM558.407 463.65L569.564 470.093L558.879 476.3L547.721 469.857L558.407 463.65ZM570.821 470.8L581.979 477.243L571.293 483.45L560.136 477.007L570.821 470.8ZM583.079 477.871L594.236 484.314L583.55 490.521L572.393 484.079L583.079 477.871ZM595.414 485.021L606.571 491.464L595.886 497.671L584.729 491.229L595.414 485.021ZM607.671 492.171L618.829 498.614L608.143 504.821L596.986 498.379L607.671 492.171ZM620.007 499.321L631.164 505.764L620.479 511.971L609.321 505.529L620.007 499.321ZM630.85 502.7L641.536 496.493L652.221 502.7L641.536 508.907L630.85 502.7ZM651.436 499.557L662.121 493.35L672.807 499.557L662.121 505.764L651.436 499.557ZM661.1 490.286L649.236 483.45L660.55 476.929L672.414 483.764L661.1 490.286ZM668.486 470.407L661.021 474.729L649.236 467.893L656.7 463.571L668.486 470.407ZM655.207 462.786L647.743 467.107L635.957 460.271L643.421 455.95L655.207 462.786ZM642.007 455.164L634.543 459.486L622.757 452.65L630.221 448.329L642.007 455.164ZM628.807 447.464L621.343 451.786L609.557 444.95L617.021 440.629L628.807 447.464ZM615.607 439.843L608.143 444.164L596.357 437.329L603.821 433.007L615.607 439.843ZM602.329 432.221L594.864 436.543L583.079 429.707L590.543 425.386L602.329 432.221ZM589.129 424.6L581.664 428.922L569.879 422.086L577.343 417.764L589.129 424.6ZM575.85 416.9L568.386 421.221L556.6 414.386L564.064 410.064L575.85 416.9ZM562.65 409.279L555.186 413.6L543.4 406.764L550.864 402.443L562.65 409.279ZM549.45 401.579L541.986 405.9L530.2 399.064L537.664 394.743L549.45 401.579ZM524.386 387.122L536.171 393.957L528.707 398.279L516.921 391.443L524.386 387.122ZM514.879 392.622L526.743 399.457L515.429 405.979L503.564 399.143L514.879 392.622ZM501.364 400.479L525.486 414.464L514.8 420.672L490.679 406.686L501.364 400.479ZM488.4 408.021L515.35 423.657L504.664 429.864L477.714 414.229L488.4 408.021ZM475.279 415.564L506.943 433.871L496.257 440.079L464.593 421.771L475.279 415.564ZM449.821 430.414L461.921 423.422L474.257 430.571L462.157 437.564L449.821 430.414ZM463.964 438.586L476.064 431.593L488.4 438.743L476.3 445.736L463.964 438.586ZM478.264 446.836L490.286 439.843L502.621 446.993L490.521 453.986L478.264 446.836ZM492.407 455.007L504.507 448.014L516.843 455.164L504.821 462.157L492.407 455.007ZM506.707 463.336L518.807 456.343L592.586 499.007L580.564 506L506.707 463.336ZM582.136 506.943L594.157 499.95L606.493 507.1L594.393 514.093L582.136 506.943ZM596.2 515.036L608.3 508.043L620.636 515.193L608.614 522.186L596.2 515.036ZM610.029 523.05L615.764 519.75L623.15 523.993L617.414 527.293L610.029 523.05ZM618.121 527.764L623.857 524.464L631.243 528.707L625.507 532.007L618.121 527.764ZM624.486 524.071L630.221 520.771L637.607 525.014L631.871 528.314L624.486 524.071ZM633.6 536.643L626.214 532.4L631.95 529.1L639.336 533.343L633.6 536.643ZM648.371 528.079L623.307 513.621L633.993 507.414L659.057 521.871L648.371 528.079ZM661.571 520.457L643.893 510.243L654.579 504.036L672.257 514.25L661.571 520.457ZM674.536 512.914L663.85 506.707L674.536 500.5L685.143 506.786L674.536 512.914ZM687.343 505.529L662.671 491.307L673.986 484.786L698.657 499.007L687.343 505.529ZM700.7 497.75L688.914 490.914L696.379 486.593L708.164 493.429L700.7 497.75Z" fill="#B7B7B7"/>
<path d="M522.814 532.557C521.714 532.557 520.614 532.322 519.75 531.85L459.171 496.807C458.071 496.179 457.521 495.471 457.443 494.607C457.443 493.821 457.914 493.114 458.857 492.564L495.236 471.507C496.021 471.036 497.121 470.8 498.221 470.8C499.4 470.8 500.5 471.036 501.286 471.586L501.521 471.743L562.1 506.786C562.964 507.336 563.514 508.043 563.514 508.829C563.514 509.614 563.043 510.321 562.1 510.871L525.721 531.929C525.014 532.321 523.993 532.557 522.814 532.557Z" fill="#9E9E9E"/>
<path d="M561.943 507.1L501.364 472.057L501.129 471.9C499.557 470.957 497.043 470.957 495.55 471.9L459.171 492.957C458.386 493.429 457.993 493.979 457.993 494.607C457.993 495.236 458.386 495.786 459.407 496.414L519.986 531.457C521.557 532.321 524.071 532.321 525.564 531.457L561.943 510.4C562.65 510.007 563.121 509.379 563.121 508.75C563.121 508.121 562.729 507.571 561.943 507.1Z" fill="#B7B7B7"/>
<path d="M537.586 394.743L549.45 401.579L541.986 405.9L530.2 399.064L537.586 394.743Z" fill="#303030"/>
<path d="M528.157 400.321L540.021 407.157L528.707 413.757L516.843 406.921L528.157 400.321Z" fill="#303030"/>
<path d="M540.493 423.107L551.257 429.314L540.571 435.443L529.886 429.236L540.493 423.107Z" fill="#303030"/>
<path d="M616.943 440.629L628.807 447.464L621.343 451.786L609.557 444.95L616.943 440.629Z" fill="#303030"/>
<path d="M601.071 458.15L611.836 464.357L601.15 470.486L590.464 464.279L601.071 458.15Z" fill="#303030"/>
<path d="M656.621 463.571L668.486 470.407L661.021 474.729L649.236 467.893L656.621 463.571Z" fill="#303030"/>
<path d="M669.9 471.271L681.764 478.107L674.3 482.429L662.514 475.593L669.9 471.271Z" fill="#303030"/>
<path d="M629.2 489.422L639.886 495.629L629.279 501.757L618.514 495.629L629.2 489.422Z" fill="#303030"/>
<path d="M576.793 444.086L587.479 450.214L576.793 456.421L566.107 450.214L576.793 444.086Z" fill="#303030"/>
<path d="M518.807 456.264L592.586 499.007L580.486 506L506.707 463.336L518.807 456.264Z" fill="#303030"/>
<path d="M550.864 402.443L562.65 409.279L555.186 413.521L543.4 406.686L550.864 402.443Z" fill="#303030"/>
<path d="M590.543 425.386L602.329 432.221L594.943 436.543L583.079 429.707L590.543 425.386Z" fill="#303030"/>
<path d="M461.921 423.422L474.257 430.571L462.236 437.564L449.821 430.414L461.921 423.422Z" fill="#303030"/>
<path d="M475.279 415.564L507.021 433.95L496.336 440.079L464.671 421.771L475.279 415.564Z" fill="#303030"/>
<path d="M552.671 430.1L563.357 436.307L552.671 442.514L541.986 436.307L552.671 430.1Z" fill="#303030"/>
<path d="M529.964 432.064L540.729 438.271L530.043 444.4L519.357 438.193L529.964 432.064Z" fill="#303030"/>
<path d="M564.771 437.093L575.457 443.3L564.85 449.507L554.086 443.3L564.771 437.093Z" fill="#303030"/>
<path d="M542.379 439.214L553.064 445.343L542.379 451.55L531.693 445.343L542.379 439.214Z" fill="#303030"/>
<path d="M594.314 438.586L606.1 445.421L594.864 452.021L583 445.107L594.314 438.586Z" fill="#303030"/>
<path d="M521.479 442.279L532.636 448.8L522.029 454.929L510.793 448.486L521.479 442.279Z" fill="#303030"/>
<path d="M533.736 449.35L544.893 455.871L534.286 462.079L523.05 455.557L533.736 449.35Z" fill="#303030"/>
<path d="M567.05 453.514L577.814 459.721L567.129 465.85L556.443 459.643L567.05 453.514Z" fill="#303030"/>
<path d="M620.871 453.986L632.657 460.821L621.421 467.343L609.557 460.507L620.871 453.986Z" fill="#303030"/>
<path d="M625.664 472.371L636.35 478.5L625.743 484.707L614.979 478.5L625.664 472.371Z" fill="#303030"/>
<path d="M637.764 479.364L648.529 485.572L637.843 491.7L627.157 485.493L637.764 479.364Z" fill="#303030"/>
<path d="M616.707 482.193L627.393 488.4L616.707 494.529L606.021 488.321L616.707 482.193Z" fill="#303030"/>
<path d="M662.121 493.429L672.807 499.636L662.2 505.764L651.436 499.557L662.121 493.429Z" fill="#303030"/>
<path d="M620.007 499.321L631.164 505.764L620.557 511.971L609.321 505.45L620.007 499.321Z" fill="#303030"/>
<path d="M594.236 499.95L606.571 507.1L594.55 514.093L582.136 506.943L594.236 499.95Z" fill="#303030"/>
<path d="M654.5 504.036L672.179 514.25L661.571 520.457L643.814 510.243L654.5 504.036Z" fill="#303030"/>
<path d="M608.221 508.043L620.636 515.193L608.536 522.186L596.2 515.036L608.221 508.043Z" fill="#303030"/>
<path d="M630.221 520.771L637.529 525.014L631.793 528.314L624.486 524.071L630.221 520.771Z" fill="#303030"/>
<path d="M623.857 524.386L631.243 528.707L625.507 532.007L618.121 527.764L623.857 524.386Z" fill="#303030"/>
<path d="M524.386 387.121L536.25 393.957L528.786 398.279L517 391.443L524.386 387.121Z" fill="#303030"/>
<path d="M514.879 392.621L526.664 399.457L515.429 406.057L503.564 399.221L514.879 392.621Z" fill="#303030"/>
<path d="M501.364 400.479L525.564 414.386L514.879 420.593L490.757 406.607L501.364 400.479Z" fill="#303030"/>
<path d="M564.064 410.064L575.85 416.9L568.464 421.221L556.6 414.386L564.064 410.064Z" fill="#303030"/>
<path d="M541.357 407.943L553.221 414.857L541.907 421.379L530.043 414.543L541.357 407.943Z" fill="#303030"/>
<path d="M528.393 416.036L539.078 422.243L528.471 428.45L517.707 422.243L528.393 416.036Z" fill="#303030"/>
<path d="M577.343 417.764L589.129 424.6L581.743 428.843L569.879 422.007L577.343 417.764Z" fill="#303030"/>
<path d="M554.636 415.643L566.5 422.479L555.186 429.079L543.4 422.243L554.636 415.643Z" fill="#303030"/>
<path d="M488.4 408.021L515.429 423.579L504.743 429.786L477.793 414.15L488.4 408.021Z" fill="#303030"/>
<path d="M567.757 423.186L579.543 430.1L568.229 436.621L556.443 429.786L567.757 423.186Z" fill="#303030"/>
<path d="M517.629 424.836L528.314 431.043L517.707 437.25L506.943 431.043L517.629 424.836Z" fill="#303030"/>
<path d="M603.743 433.007L615.607 439.843L608.143 444.164L596.357 437.329L603.743 433.007Z" fill="#303030"/>
<path d="M581.036 430.886L592.9 437.8L581.586 444.321L569.721 437.486L581.036 430.886Z" fill="#303030"/>
<path d="M476.064 431.593L488.4 438.743L476.379 445.736L463.964 438.586L476.064 431.593Z" fill="#303030"/>
<path d="M509.143 435.129L520.3 441.65L509.614 447.779L498.457 441.336L509.143 435.129Z" fill="#303030"/>
<path d="M490.286 439.843L502.621 446.993L490.6 453.986L478.264 446.836L490.286 439.843Z" fill="#303030"/>
<path d="M554.714 446.286L565.4 452.493L554.793 458.7L544.029 452.493L554.714 446.286Z" fill="#303030"/>
<path d="M630.221 448.329L642.007 455.164L634.543 459.486L622.757 452.65L630.221 448.329Z" fill="#303030"/>
<path d="M607.593 446.286L619.457 453.121L608.143 459.721L596.279 452.807L607.593 446.286Z" fill="#303030"/>
<path d="M504.429 448.014L516.764 455.164L504.743 462.157L492.407 455.007L504.429 448.014Z" fill="#303030"/>
<path d="M588.893 451.079L599.579 457.286L588.971 463.414L578.207 457.207L588.893 451.079Z" fill="#303030"/>
<path d="M643.421 455.95L655.207 462.786L647.821 467.107L635.957 460.271L643.421 455.95Z" fill="#303030"/>
<path d="M546.15 456.579L557.386 463.021L546.7 469.229L535.543 462.786L546.15 456.579Z" fill="#303030"/>
<path d="M579.464 460.586L590.15 466.793L579.464 473L568.779 466.793L579.464 460.586Z" fill="#303030"/>
<path d="M634.15 461.686L646.014 468.521L634.7 475.043L622.836 468.207L634.15 461.686Z" fill="#303030"/>
<path d="M558.407 463.65L569.643 470.171L558.957 476.3L547.8 469.857L558.407 463.65Z" fill="#303030"/>
<path d="M613.25 465.143L623.936 471.35L613.25 477.479L602.564 471.35L613.25 465.143Z" fill="#303030"/>
<path d="M591.957 467.893L602.643 474.1L592.036 480.229L581.271 474.021L591.957 467.893Z" fill="#303030"/>
<path d="M647.193 469.229L659.057 476.064L647.743 482.586L635.957 475.75L647.193 469.229Z" fill="#303030"/>
<path d="M570.821 470.8L581.979 477.322L571.293 483.45L560.136 477.007L570.821 470.8Z" fill="#303030"/>
<path d="M604.293 475.043L615.057 481.25L604.371 487.379L593.686 481.171L604.293 475.043Z" fill="#303030"/>
<path d="M683.1 478.893L694.964 485.729L687.5 490.05L675.714 483.214L683.1 478.893Z" fill="#303030"/>
<path d="M660.55 476.929L672.336 483.764L661.1 490.286L649.236 483.45L660.55 476.929Z" fill="#303030"/>
<path d="M583.079 477.871L594.236 484.393L583.55 490.6L572.393 484.079L583.079 477.871Z" fill="#303030"/>
<path d="M696.379 486.593L708.164 493.429L700.7 497.75L688.914 490.914L696.379 486.593Z" fill="#303030"/>
<path d="M595.414 485.021L606.571 491.543L595.886 497.671L584.729 491.229L595.414 485.021Z" fill="#303030"/>
<path d="M650.021 486.436L660.707 492.643L650.021 498.771L639.336 492.564L650.021 486.436Z" fill="#303030"/>
<path d="M607.671 492.172L618.829 498.614L608.143 504.822L596.986 498.3L607.671 492.172Z" fill="#303030"/>
<path d="M673.986 484.707L698.657 498.929L687.343 505.529L662.671 491.229L673.986 484.707Z" fill="#303030"/>
<path d="M641.536 496.571L652.3 502.779L641.614 508.907L630.85 502.7L641.536 496.571Z" fill="#303030"/>
<path d="M674.457 500.579L685.143 506.786L674.536 512.914L663.771 506.707L674.457 500.579Z" fill="#303030"/>
<path d="M615.764 519.75L623.15 523.993L617.414 527.293L610.029 523.05L615.764 519.75Z" fill="#303030"/>
<path d="M634.071 507.414L659.057 521.871L648.371 528.079L623.386 513.621L634.071 507.414Z" fill="#303030"/>
<path d="M631.95 529.1L639.336 533.343L633.6 536.643L626.214 532.4L631.95 529.1Z" fill="#303030"/>
<path d="M499.557 526.036L468.521 508.043C467.5 507.414 465.85 507.414 464.829 508.043L485.729 520.143L499.636 528.157C500.578 527.607 500.578 526.664 499.557 526.036Z" fill="#4D4D4D"/>
<path d="M745.644 500.579L609.087 579.779C603.43 583.079 594.315 583 588.658 579.779L499.558 528.236C500.58 527.607 500.58 526.664 499.558 526.036L468.522 508.121C467.501 507.493 465.772 507.493 464.83 508.121L485.73 520.221L375.572 456.5C372.822 454.929 371.408 452.807 371.33 450.686C371.33 452.257 371.33 453.907 371.33 455.479C371.33 457.6 372.744 459.8 375.572 461.45L481.958 522.971L498.851 532.714L499.558 533.107L588.658 584.65C588.972 584.807 589.365 585.043 589.68 585.2C589.837 585.279 589.915 585.279 590.072 585.357C590.308 585.436 590.465 585.514 590.701 585.593H590.78C591.251 585.75 591.801 585.986 592.351 586.143C592.43 586.143 592.43 586.143 592.508 586.221C592.665 586.221 592.744 586.3 592.901 586.3C593.215 586.379 593.451 586.457 593.765 586.536C593.844 586.536 593.922 586.614 594.001 586.614C594.08 586.614 594.237 586.614 594.315 586.693C594.551 586.771 594.787 586.771 595.101 586.85C595.18 586.85 595.337 586.85 595.415 586.929C595.494 586.929 595.651 586.929 595.73 586.929C595.965 586.929 596.201 587.007 596.437 587.007C596.515 587.007 596.672 587.007 596.751 587.007C596.83 587.007 596.987 587.007 597.065 587.007C597.301 587.007 597.537 587.007 597.851 587.007C598.008 587.007 598.087 587.007 598.244 587.007C598.322 587.007 598.401 587.007 598.48 587.007C598.794 587.007 599.03 587.007 599.344 587.007C599.501 587.007 599.58 587.007 599.737 587.007C599.815 587.007 599.894 587.007 599.972 587.007C600.287 587.007 600.68 587.007 600.994 586.929C601.072 586.929 601.23 586.929 601.308 586.929H601.387C601.937 586.85 602.487 586.771 603.037 586.693H603.115C603.272 586.693 603.43 586.614 603.587 586.614C603.822 586.536 604.137 586.536 604.372 586.457C604.53 586.379 604.765 586.379 604.922 586.3C605.158 586.221 605.472 586.143 605.708 586.064C605.787 586.064 605.787 586.064 605.865 585.986C605.944 585.986 606.022 585.907 606.101 585.907C606.494 585.75 606.887 585.593 607.28 585.436C607.437 585.357 607.515 585.357 607.672 585.279C608.144 585.043 608.615 584.807 609.008 584.571L745.565 505.371C745.644 505.371 745.722 505.293 745.722 505.293C745.88 505.214 745.958 505.136 746.115 505.057C746.272 504.979 746.508 504.821 746.665 504.664C746.822 504.586 746.901 504.429 747.058 504.35C747.215 504.193 747.372 504.114 747.53 503.957L747.608 503.879C747.687 503.8 747.687 503.8 747.765 503.721C748.001 503.486 748.237 503.25 748.394 503.014C748.394 502.936 748.472 502.936 748.551 502.857C748.551 502.779 748.63 502.779 748.63 502.7C748.787 502.543 748.865 502.386 748.944 502.229C749.022 502.15 749.022 502.071 749.101 501.993C749.101 501.993 749.101 501.914 749.18 501.914C749.258 501.757 749.337 501.6 749.415 501.443C749.415 501.364 749.494 501.286 749.572 501.207V501.129C749.651 500.971 749.651 500.814 749.73 500.736C749.73 500.657 749.808 500.5 749.808 500.421V500.343C749.808 500.186 749.808 500.029 749.887 499.95C749.887 499.871 749.887 499.714 749.887 499.636C749.887 499.557 749.887 499.557 749.887 499.479C749.887 497.986 749.887 496.414 749.887 494.921C749.651 497.121 748.237 499.007 745.644 500.579Z" fill="#AAAAAA"/>
<path d="M405.507 510.793L286.393 580.014L434.736 665.657L553.85 596.436L405.507 510.793Z" fill="#D1D1D1"/>
<path d="M563.514 595.493L384.686 492.25C379.421 489.186 370.936 489.186 365.671 492.25L254.257 556.993C248.993 560.057 249.071 564.929 254.336 567.993L433.164 671.236C438.429 674.3 446.914 674.3 452.179 671.236L563.593 606.493C568.779 603.507 568.779 598.557 563.514 595.493ZM434.736 665.657L286.314 580.014L405.429 510.793L553.85 596.436L434.736 665.657Z" fill="#58595B"/>
<path d="M563.594 606.493L452.18 671.236C446.916 674.3 438.43 674.3 433.166 671.236L254.337 567.993C251.666 566.5 250.33 564.457 250.409 562.414V567.286C250.409 569.329 251.744 571.293 254.337 572.864L433.166 676.107C438.43 679.171 446.916 679.171 452.18 676.107L563.594 611.364C566.187 609.871 567.523 607.907 567.523 605.864V600.993C567.523 603.036 566.187 605 563.594 606.493Z" fill="#D1D1D1"/>
<path d="M410.457 624.879C412.421 625.979 413.993 628.729 413.993 631.007C413.993 633.207 412.421 634.15 410.457 633.05C408.493 631.95 406.921 629.2 406.921 626.921C406.921 624.643 408.493 623.779 410.457 624.879Z" fill="#58595B"/>
<path d="M489.971 578.6C489.029 578.05 488.086 577.971 487.457 578.364L407.943 624.721C408.571 624.329 409.436 624.407 410.457 624.957C412.421 626.057 413.993 628.807 413.993 631.086C413.993 632.186 413.6 632.971 412.971 633.364L492.486 587.007C493.114 586.614 493.507 585.829 493.507 584.729C493.507 582.45 491.936 579.7 489.971 578.6Z" fill="#F1F2F2"/>
<path d="M412.971 633.286L452.414 610.264C452.571 609.871 452.729 609.4 452.729 608.771C452.729 606.336 451 603.35 448.879 602.171C448.407 601.857 447.936 601.7 447.464 601.7L407.943 624.643C408.571 624.25 409.436 624.329 410.457 624.879C412.421 625.979 413.993 628.729 413.993 631.007C413.993 632.107 413.6 632.893 412.971 633.286Z" fill="#58595B"/>
<path d="M408.1 627.157C409.593 628.021 410.85 630.221 410.85 631.95C410.85 633.679 409.593 634.386 408.1 633.521C406.529 632.657 405.35 630.457 405.35 628.729C405.271 626.921 406.529 626.214 408.1 627.157Z" fill="#58595B"/>
<path d="M500.107 576.086C499.871 575.929 499.714 575.85 499.557 575.929L491.464 580.643C491.621 580.564 491.779 580.643 492.014 580.8C492.171 580.957 492.25 581.114 492.329 581.35C492.407 581.664 492.329 581.821 492.171 581.9L500.264 577.186C500.421 577.107 500.422 576.95 500.422 576.636C500.343 576.4 500.264 576.243 500.107 576.086Z" fill="#58595B"/>
<path d="M498.693 576.008C499.321 576.401 499.793 577.265 499.793 577.972C499.793 578.679 499.243 578.993 498.614 578.601C497.986 578.208 497.514 577.343 497.514 576.636C497.514 575.929 498.064 575.693 498.693 576.008Z" fill="#F1F2F2"/>
<path d="M488.243 578.129L498.143 575.85L499.636 578.521L493.036 586.379L488.243 578.129Z" fill="#F1F2F2"/>
<path d="M410.064 633.679L412.186 632.421C412.736 632.107 413.129 631.479 413.129 630.85C413.129 628.964 411.793 626.607 410.143 625.664H410.064C409.514 625.35 408.807 625.35 408.257 625.664L406.136 626.921C406.607 626.607 407.314 626.686 408.1 627.079C409.593 627.943 410.85 630.143 410.85 631.871C410.85 632.814 410.536 633.364 410.064 633.679Z" fill="#D1D1D1"/>
<path d="M317.979 465.064C317.979 465.221 317.979 465.457 317.9 465.614C317.9 465.771 317.821 465.85 317.821 466.007C317.743 466.164 317.743 466.321 317.664 466.479C317.586 466.636 317.586 466.714 317.507 466.871C317.429 467.029 317.35 467.186 317.271 467.421C317.193 467.579 317.114 467.657 317.036 467.814C316.879 467.971 316.8 468.207 316.643 468.364C316.486 468.521 316.407 468.757 316.25 468.914C316.171 468.993 316.171 468.993 316.093 469.071C315.857 469.307 315.621 469.543 315.386 469.779C315.229 469.936 315.071 470.093 314.914 470.171C314.757 470.329 314.6 470.407 314.443 470.564C314.286 470.721 314.05 470.879 313.814 470.957C313.657 471.114 313.421 471.193 313.264 471.35L305.879 475.671L277.986 492.014L266.986 498.457L255.986 504.9L228.093 521.243L220.707 525.564C220.236 525.879 219.686 526.114 219.136 526.35C218.979 526.429 218.821 526.507 218.664 526.586C218.193 526.743 217.721 526.979 217.25 527.136C217.093 527.214 216.936 527.214 216.857 527.293C216.543 527.371 216.229 527.45 215.993 527.529C215.757 527.607 215.6 527.607 215.364 527.686C215.05 527.764 214.736 527.843 214.421 527.921C214.186 528 214.029 528 213.793 528.078C213.164 528.157 212.536 528.314 211.907 528.314C211.671 528.314 211.514 528.314 211.279 528.393C210.886 528.393 210.571 528.471 210.179 528.471C209.943 528.471 209.707 528.471 209.471 528.471C209.157 528.471 208.843 528.471 208.529 528.471C208.293 528.471 208.057 528.471 207.821 528.471C207.507 528.471 207.271 528.471 206.957 528.393C206.721 528.393 206.486 528.393 206.25 528.314C205.936 528.314 205.7 528.236 205.386 528.236C205.15 528.236 204.914 528.157 204.679 528.157C204.364 528.079 204.05 528.079 203.736 528C203.5 527.921 203.264 527.921 203.029 527.843C202.636 527.764 202.321 527.686 201.929 527.607C201.771 527.529 201.536 527.529 201.379 527.45C200.75 527.293 200.2 527.057 199.571 526.821C199.257 526.743 199.021 526.586 198.707 526.507C198.55 526.428 198.393 526.35 198.314 526.35C197.921 526.114 197.529 525.957 197.136 525.721L190.3 521.793L189.121 521.164L136.479 491.071L127.05 485.65L126.971 502.936L136.4 508.357L189.043 538.45L190.221 539.078L197.057 543.007C197.45 543.243 197.843 543.4 198.236 543.636C198.393 543.714 198.55 543.793 198.707 543.793C198.943 543.871 199.179 544.028 199.414 544.107H199.493C200.043 544.343 200.671 544.5 201.3 544.736H201.379C201.536 544.736 201.693 544.814 201.771 544.814C202.164 544.893 202.479 544.971 202.871 545.05C202.95 545.05 203.029 545.128 203.107 545.128C203.264 545.128 203.421 545.207 203.579 545.207C203.893 545.286 204.129 545.286 204.443 545.364C204.521 545.364 204.679 545.443 204.757 545.443C204.914 545.443 205.071 545.443 205.229 545.521C205.464 545.521 205.779 545.6 206.014 545.6C206.171 545.6 206.25 545.6 206.407 545.678C206.564 545.678 206.721 545.678 206.8 545.678C207.036 545.678 207.35 545.678 207.586 545.757C207.743 545.757 207.821 545.757 207.979 545.757C208.136 545.757 208.214 545.757 208.371 545.757C208.686 545.757 208.921 545.757 209.236 545.757C209.393 545.757 209.55 545.757 209.707 545.757C209.786 545.757 209.943 545.757 210.021 545.757C210.414 545.757 210.729 545.678 211.121 545.678C211.279 545.678 211.436 545.678 211.593 545.678C211.671 545.678 211.671 545.678 211.75 545.678C212.379 545.6 213.007 545.521 213.636 545.443H213.714C213.871 545.443 214.107 545.364 214.264 545.286C214.579 545.207 214.893 545.129 215.207 545.05C215.443 544.971 215.679 544.893 215.836 544.893C216.15 544.814 216.386 544.736 216.7 544.657C216.779 544.657 216.779 544.657 216.857 544.578C216.936 544.578 217.014 544.5 217.171 544.5C217.643 544.343 218.114 544.186 218.507 543.95C218.664 543.871 218.821 543.793 218.979 543.714C219.529 543.479 220.079 543.164 220.55 542.928L227.936 538.607L255.829 522.264L266.829 515.821L269.186 514.486L271.936 512.914L305.721 493.036L313.107 488.714C313.186 488.714 313.186 488.636 313.264 488.636C313.421 488.557 313.579 488.479 313.657 488.321C313.893 488.164 314.05 488.086 314.286 487.929C314.443 487.85 314.6 487.693 314.757 487.536C314.914 487.379 315.15 487.221 315.307 487.143L315.386 487.064C315.621 486.829 315.779 486.671 316.014 486.436C316.093 486.357 316.093 486.357 316.171 486.279C316.25 486.2 316.407 486.043 316.486 485.964C316.564 485.886 316.564 485.807 316.643 485.807C316.8 485.65 316.879 485.414 317.036 485.257C317.114 485.179 317.114 485.1 317.193 485.021C317.193 484.943 317.193 484.943 317.271 484.864C317.35 484.707 317.429 484.55 317.507 484.314C317.586 484.236 317.586 484.157 317.664 484V483.921C317.743 483.764 317.743 483.607 317.821 483.45C317.821 483.371 317.9 483.214 317.9 483.136V483.057C317.9 482.9 317.979 482.664 317.979 482.507C317.979 482.429 317.979 482.271 317.979 482.193C317.979 482.114 317.979 482.114 317.979 482.036C317.979 476.3 317.979 470.564 318.057 464.75C318.057 464.75 317.979 464.907 317.979 465.064Z" fill="#474849"/>
<path d="M313.029 457.679L308.707 455.243L305.014 453.2L306.193 453.829L252.371 423.107L242.943 417.686L181.814 453.593L174.036 458.15L164.921 463.493L164.843 463.571L151.721 471.271L127.207 485.571L136.636 490.993L162.014 505.529L190.85 522.029L190.457 521.793L197.293 525.721C203.893 529.493 214.421 529.414 220.864 525.643L228.25 521.321L256.143 504.979L267.143 498.536L269.5 497.2L272.25 495.629L289.064 485.807H289.143L306.114 475.829L313.5 471.507C319.707 467.5 319.629 461.45 313.029 457.679Z" fill="#58595B"/>
<path d="M248.521 437.957L218.586 455.557L226.914 460.271L262.036 480.386L291.971 462.786L248.521 437.957Z" fill="#C1C1C1"/>
<path d="M313.264 471.271L305.879 475.593L272.093 495.471L269.343 497.043L266.986 498.379L255.986 504.821V504.9V504.821L228.171 521.164L220.786 525.486C214.343 529.257 203.814 529.336 197.214 525.564L190.379 521.636L189.2 521.007L136.557 490.914L128.307 486.2V498.379L136.479 503.093L189.121 533.186L190.3 533.814L197.136 537.743C197.529 537.979 197.921 538.214 198.314 538.371C198.471 538.45 198.629 538.529 198.786 538.529C199.021 538.607 199.257 538.764 199.493 538.843H199.571C200.121 539.079 200.75 539.236 201.379 539.471H201.457C201.614 539.471 201.771 539.55 201.85 539.55C202.243 539.629 202.557 539.707 202.95 539.786C203.029 539.786 203.107 539.864 203.186 539.864C203.343 539.864 203.5 539.943 203.657 539.943C203.971 540.021 204.207 540.021 204.521 540.1C204.6 540.1 204.757 540.179 204.836 540.179C204.993 540.179 205.15 540.179 205.307 540.257C205.543 540.257 205.857 540.336 206.093 540.336C206.25 540.336 206.329 540.336 206.486 540.414C206.643 540.414 206.8 540.414 206.879 540.414C207.114 540.414 207.429 540.414 207.664 540.493C207.821 540.493 207.9 540.493 208.057 540.493C208.214 540.493 208.293 540.493 208.45 540.493C208.764 540.493 209 540.493 209.314 540.493C209.471 540.493 209.629 540.493 209.786 540.493C209.864 540.493 210.021 540.493 210.1 540.493C210.493 540.493 210.807 540.414 211.2 540.414C211.357 540.414 211.514 540.414 211.671 540.414C211.75 540.414 211.75 540.414 211.829 540.414C212.457 540.336 213.086 540.257 213.714 540.179H213.793C213.95 540.179 214.186 540.1 214.343 540.021C214.657 539.943 214.971 539.864 215.286 539.786C215.521 539.707 215.757 539.629 215.914 539.629C216.229 539.55 216.464 539.471 216.779 539.393C216.857 539.393 216.857 539.393 216.936 539.314C217.014 539.314 217.093 539.236 217.25 539.236C217.721 539.079 218.193 538.921 218.586 538.686C218.743 538.607 218.9 538.529 219.057 538.45C219.607 538.214 220.157 537.9 220.629 537.664L228.014 533.343L255.907 517L266.907 510.557L269.264 509.221L272.014 507.65L305.8 487.771L313.186 483.45C313.264 483.45 313.264 483.371 313.343 483.371C313.5 483.293 313.657 483.214 313.736 483.057C313.971 482.9 314.129 482.821 314.364 482.664C314.521 482.586 314.679 482.429 314.836 482.271C314.993 482.114 315.229 481.957 315.386 481.879L315.464 481.8C315.7 481.564 315.857 481.407 316.093 481.171C316.171 481.093 316.171 481.093 316.25 481.014C316.329 480.936 316.486 480.779 316.564 480.7C316.643 480.621 316.643 480.543 316.721 480.543C316.879 480.386 316.957 480.15 317.114 479.993C317.193 479.914 317.193 479.836 317.271 479.757C317.271 479.679 317.271 479.679 317.35 479.6C317.429 479.443 317.507 479.286 317.586 479.05C317.664 478.971 317.664 478.893 317.743 478.736V478.657C317.821 478.5 317.821 478.343 317.9 478.186C317.9 478.107 317.979 477.95 317.979 477.871V477.793C317.979 477.636 318.057 477.4 318.057 477.243C318.057 477.164 318.057 477.007 318.057 476.929C318.057 476.85 318.057 476.85 318.057 476.771C318.057 472.764 318.057 468.757 318.057 464.75C317.979 467.107 316.407 469.464 313.264 471.271Z" fill="#F4F5F5"/>
<path d="M195.486 524.621L212.929 514.329L231.55 503.486L311.3 456.657L308.786 455.164L305.014 453.121H305.093L306.271 453.75L301.4 451L231 492.329L220.629 498.457L208.45 505.607L208.293 505.686L190.771 515.979L185.586 518.964L190.85 521.95L190.457 521.714L195.486 524.621Z" fill="#9E9E9E"/>
<path d="M190.379 521.714L185.586 518.964V536.25L189.2 538.371L190.379 539L195.486 541.907V524.621L193.364 523.364L190.457 521.714H190.379Z" fill="#898989"/>
<path d="M619.3 672.886L617.336 671.786L610.814 668.014L596.357 659.686L589.836 655.914L587.871 654.814C585.593 653.479 581.9 653.479 579.621 654.814L577.736 655.914L576.636 656.543L574.75 657.643L574.514 657.8L573.571 658.35L571.529 659.529L570.586 660.079L518.257 690.407L517.314 690.957L515.271 692.136L515.036 692.293L514.329 692.686L514.093 692.843L512.05 694.021L511.107 694.571C507.729 696.536 507.807 699.679 511.107 701.564L538.529 717.436C541.907 719.4 547.329 719.4 550.629 717.436L551.571 716.886L553.614 715.707L553.85 715.55L554.557 715.157L554.793 715L556.836 713.821L557.779 713.271L610.186 682.864L611.364 682.157L613.329 680.979L614.35 680.35L614.586 680.193L616.314 679.171L617.571 678.386L619.143 677.443C621.579 676.343 621.579 674.221 619.3 672.886Z" fill="#E6E7E8"/>
<path d="M593.136 662.357C593.45 662.2 593.843 662.2 594.157 662.357L608.929 670.843C609.243 671 609.243 671.236 608.929 671.393C608.614 671.55 608.221 671.55 607.907 671.393L593.136 662.907C592.9 662.829 592.9 662.514 593.136 662.357Z" fill="#E6E7E8"/>
<path d="M590.229 660.707C590.779 660.393 591.564 660.393 592.114 660.707C592.664 661.021 592.664 661.493 592.114 661.807C591.564 662.121 590.779 662.121 590.229 661.807C589.757 661.493 589.757 661.021 590.229 660.707Z" fill="#E6E7E8"/>
<path d="M535.7 708.007C533.5 709.264 529.964 709.264 527.764 708.007C525.564 706.75 525.564 704.707 527.764 703.371C529.964 702.114 533.5 702.114 535.7 703.371C537.821 704.629 537.9 706.75 535.7 708.007Z" fill="#DDDDDD"/>
<path d="M556.129 712.172L520.3 691.586L578.6 657.564L614.429 678.15L556.129 712.172Z" fill="#E6E7E8"/>
<path d="M535.621 703.371C533.421 702.114 529.886 702.114 527.686 703.371C525.486 704.629 525.486 706.671 527.764 708.007C529.964 709.264 533.5 709.264 535.7 708.007C537.9 706.75 537.821 704.629 535.621 703.371ZM535.543 707.929C533.421 709.186 530.043 709.186 527.921 707.929C525.8 706.671 525.8 704.707 527.921 703.529C530.043 702.271 533.421 702.271 535.543 703.529C537.586 704.707 537.664 706.671 535.543 707.929Z" fill="#808184"/>
<path d="M578.6 657.564L520.3 691.586L556.129 712.172L614.429 678.15L578.6 657.564Z" fill="#58595B"/>
<mask id="mask1" mask-type="alpha" maskUnits="userSpaceOnUse" x="520" y="657" width="95" height="35">
<path d="M578.6 657.564L520.3 691.586L614.429 678.15L578.6 657.564Z" fill="url(#paint2_linear)"/>
</mask>
<g mask="url(#mask1)">
<path d="M578.6 657.564L520.3 691.586L614.429 678.15L578.6 657.564Z" fill="url(#paint3_linear)"/>
<path d="M619.3 677.679L617.729 678.621L616.471 679.407L614.743 680.429L614.507 680.586L613.486 681.214L611.521 682.393L610.343 683.1L557.857 713.35L556.914 713.9L554.872 715.079L554.636 715.236L553.929 715.629L553.693 715.786L551.65 716.964L550.707 717.514C547.329 719.479 541.907 719.479 538.607 717.514L511.107 701.643C509.457 700.7 508.593 699.364 508.593 698.107C508.593 698.893 508.593 699.757 508.593 700.543C508.593 701.8 509.457 703.136 511.107 704.079L538.529 719.95C541.907 721.914 547.329 721.914 550.629 719.95L551.572 719.4L553.614 718.221L553.85 718.064L554.557 717.672L554.793 717.514L556.836 716.336L557.779 715.786L610.186 685.379L611.364 684.671L613.329 683.493L614.35 682.864L614.586 682.707L616.314 681.686L617.571 680.9L619.143 679.957C620.243 679.329 620.871 678.464 620.871 677.6C620.871 676.814 620.871 675.95 620.871 675.164C621.029 676.186 620.479 677.05 619.3 677.679Z" fill="#DBDCDD"/>
<path d="M608.929 670.843C609.243 671 609.243 671.236 608.929 671.393C608.614 671.55 608.221 671.55 607.907 671.393L593.136 662.907C592.821 662.75 592.821 662.514 593.136 662.357C593.45 662.2 593.843 662.2 594.157 662.357L608.929 670.843Z" fill="#58595B"/>
<path d="M592.114 660.707C592.664 661.021 592.664 661.493 592.114 661.807C591.564 662.121 590.779 662.121 590.229 661.807C589.679 661.493 589.679 661.021 590.229 660.707C590.779 660.393 591.643 660.393 592.114 660.707Z" fill="#58595B"/>
</g>
<path d="M706.75 588.579L706.593 643.107C706.593 647.036 704 651.043 698.814 654.029C688.364 660.079 671.314 660.079 660.786 654.029C655.521 650.964 652.85 646.957 652.85 642.95L653.007 588.422C653.007 592.429 655.679 596.436 660.943 599.5C671.471 605.55 688.521 605.55 698.971 599.5C704.157 596.514 706.75 592.586 706.75 588.579Z" fill="#D6D6D6"/>
<path d="M698.814 577.5C709.343 583.55 709.421 593.45 698.971 599.5C688.521 605.55 671.471 605.55 660.943 599.5C650.414 593.45 650.336 583.55 660.786 577.5C671.236 571.45 688.286 571.45 698.814 577.5Z" fill="#E8E3E5"/>
<path d="M679.957 601.543C673.2 601.543 666.914 600.05 662.2 597.3C657.879 594.786 655.521 591.643 655.521 588.421C655.521 585.2 657.879 582.057 662.121 579.621C666.836 576.871 673.121 575.379 679.879 575.379C686.636 575.379 692.921 576.871 697.636 579.621C701.957 582.136 704.314 585.279 704.314 588.5C704.314 591.721 701.957 594.864 697.714 597.3C693 600.05 686.714 601.543 679.957 601.543Z" fill="#C6C6C6"/>
<path d="M657.329 593.371C658.429 594.786 660.079 596.121 662.121 597.379C666.836 600.129 673.121 601.621 679.879 601.621C686.636 601.621 692.921 600.129 697.636 597.379C699.679 596.2 701.25 594.864 702.35 593.529C701.564 591.25 699.521 589.207 696.457 587.4C692.057 584.807 686.086 583.393 679.721 583.393C673.357 583.393 667.464 584.807 663.064 587.321C660.157 589.05 658.193 591.171 657.329 593.371Z" fill="#58403C"/>
<path d="M657.014 637.136L660 635.407L664.321 637.921L661.336 639.65C656.936 642.164 653.007 642.479 650.1 640.829L645.779 638.314C648.686 639.886 652.614 639.65 657.014 637.136Z" fill="#C6C6C6"/>
<path d="M640.279 621.264C642.479 617.021 645.7 613.486 649.078 611.521L659.921 605.236L664.243 607.75L653.4 614.036C650.021 616 646.8 619.536 644.6 623.779C642.4 628.021 641.457 632.5 641.929 636.036C642.557 640.593 644.6 643.736 647.429 645.386L643.107 642.871C640.279 641.221 638.314 638.079 637.607 633.521C637.057 629.986 638 625.507 640.279 621.264Z" fill="#C6C6C6"/>
<path d="M644.6 623.779C646.8 619.536 650.021 616 653.4 614.036L664.243 607.75V612.15L653.4 618.436C651.121 619.771 649 622.129 647.507 624.957C646.014 627.786 645.386 630.771 645.7 633.207C646.879 641.457 653.479 644.128 661.336 639.571L664.321 637.843V642.243L661.336 643.971C651.593 649.628 643.421 646.25 641.929 636.036C641.379 632.5 642.4 628.021 644.6 623.779Z" fill="#D6D6D6"/>
<path d="M673.279 685.929C673.907 686.321 673.907 686.95 673.279 687.264C672.65 687.657 671.55 687.657 670.922 687.264C670.293 686.871 670.293 686.243 670.922 685.929C671.55 685.614 672.65 685.536 673.279 685.929Z" fill="#58595B"/>
<path d="M623.7 765.364C626.214 766.857 626.214 769.214 623.7 770.629C621.186 772.043 617.1 772.043 614.586 770.629C612.071 769.136 612.071 766.779 614.586 765.364C617.1 763.871 621.186 763.871 623.7 765.364Z" fill="#DDDDDD"/>
<path d="M682.864 688.914L589.6 742.736L662.593 785.164L755.857 731.343L682.864 688.914Z" fill="#58595B"/>
<path d="M765.129 725.45L762.457 723.879L753.421 718.614L733.464 707.064L724.429 701.8L721.757 700.229L720.971 699.757L719.557 698.893L716.886 697.321L716.336 697.007L714.136 695.75L711.464 694.179L705.964 690.957L703.293 689.386L702.507 688.914L701.093 688.05L698.421 686.479L697.871 686.164L695.671 684.907L693 683.336C689.857 681.529 684.75 681.529 681.529 683.336L678.857 684.907L677.364 685.771L674.693 687.343L674.3 687.579L672.964 688.364L670.136 690.014L668.8 690.8L596.121 732.757L594.786 733.543L591.564 735.429L590.936 735.821L590.307 736.214L587.4 737.864L586.3 738.493L585.357 739.043L583.471 740.143L582.843 740.457L582.45 740.693L579.543 742.343L577.736 743.364L575.536 744.621C572.393 746.429 572.393 749.414 575.536 751.3L578.207 752.871L605.943 768.979L607.121 769.686L616.157 774.95L618.829 776.521L621.029 777.779L621.579 778.093L623.7 779.35L624.25 779.664L626.45 780.921L629.121 782.493L634.621 785.714L637.293 787.286L639.493 788.543L640.043 788.857L642.164 790.114L642.714 790.429L644.914 791.686L647.586 793.257C650.729 795.064 655.836 795.064 659.057 793.257L661.729 791.686L663.221 790.821L665.893 789.25L666.286 789.014L667.621 788.229L670.45 786.579L671.786 785.793L717.2 759.629L725.057 755.15L744.621 743.836L746.271 742.893L747.057 742.421L748.943 741.321L750.829 740.221L753.186 738.807L754.993 737.786L757.271 736.45L758.293 735.9L758.686 735.664L761.043 734.25L762.85 733.229L765.05 731.971C768.271 730.243 768.271 727.336 765.129 725.45ZM714.764 702.507C715.157 702.271 715.786 702.271 716.179 702.507L736.529 714.371C736.921 714.607 736.921 715 736.529 715.157C736.136 715.393 735.507 715.393 735.114 715.157L714.764 703.293C714.371 703.136 714.371 702.743 714.764 702.507ZM710.757 700.15C711.464 699.757 712.643 699.757 713.35 700.15C714.057 700.543 714.057 701.25 713.35 701.643C712.643 702.036 711.464 702.036 710.757 701.643C709.971 701.25 709.971 700.621 710.757 700.15ZM623.936 770.707C621.343 772.2 617.1 772.2 614.429 770.707C611.836 769.214 611.836 766.7 614.429 765.207C617.021 763.714 621.264 763.714 623.936 765.207C626.529 766.779 626.529 769.214 623.936 770.707ZM662.593 785.164L589.679 742.736L682.943 688.914L755.857 731.343L662.593 785.164Z" fill="#E6E7E8"/>
<path d="M716.179 702.507L736.529 714.371C736.921 714.607 736.921 715 736.529 715.157C736.136 715.393 735.507 715.393 735.114 715.157L714.764 703.293C714.371 703.057 714.371 702.743 714.764 702.507C715.157 702.271 715.786 702.271 716.179 702.507Z" fill="#58595B"/>
<path d="M765.13 732.128L762.93 733.386L761.122 734.407L758.765 735.821L758.372 736.057L757.351 736.607L755.072 737.943L753.265 738.964L750.908 740.378L749.022 741.478L747.137 742.578L746.351 743.05L744.701 743.993L725.215 755.15L717.358 759.628L671.944 785.793L670.608 786.578L667.78 788.229L666.444 789.014L666.051 789.25L663.38 790.821L661.887 791.686L659.215 793.257C656.072 795.064 650.965 795.064 647.744 793.257L645.072 791.686L642.872 790.429L642.322 790.114L640.201 788.857L639.651 788.543L637.451 787.286L634.78 785.714L629.28 782.493L626.608 780.921L624.408 779.664L623.858 779.35L621.737 778.093L621.187 777.779L618.987 776.521L616.315 774.95L607.28 769.686L606.101 768.979L578.365 752.871L575.694 751.3C574.201 750.436 573.415 749.257 573.337 748.157C573.337 749.178 573.337 750.121 573.337 751.143C573.337 752.321 574.122 753.578 575.694 754.443L578.365 756.014L606.101 772.121L607.28 772.828L616.315 778.093L618.987 779.664L621.187 780.921L621.737 781.236L623.858 782.493L624.408 782.807L626.608 784.064L629.28 785.636L634.78 788.857L637.451 790.429L639.651 791.686L640.201 792L642.322 793.257L642.872 793.571L645.072 794.828L647.744 796.4C648.137 796.636 648.53 796.793 648.922 796.95H649.001C649.08 796.95 649.158 797.029 649.237 797.029C649.472 797.107 649.708 797.186 649.944 797.264C650.101 797.264 650.18 797.343 650.337 797.343C650.415 797.343 650.494 797.343 650.572 797.421C650.651 797.421 650.73 797.421 650.808 797.5C651.044 797.579 651.358 797.579 651.594 797.657C651.672 797.657 651.751 797.657 651.908 797.657C651.987 797.657 652.065 797.657 652.144 797.657C652.222 797.657 652.38 797.657 652.458 797.657C652.694 797.657 653.008 797.657 653.244 797.736C653.322 797.736 653.401 797.736 653.48 797.736C653.558 797.736 653.637 797.736 653.715 797.736C653.872 797.736 653.951 797.736 654.108 797.736C654.422 797.736 654.737 797.736 654.972 797.657H655.051C655.13 797.657 655.208 797.657 655.287 797.657C655.522 797.657 655.758 797.578 655.994 797.578C656.151 797.578 656.308 797.5 656.544 797.5C656.622 797.5 656.622 797.5 656.701 797.5C657.015 797.421 657.251 797.343 657.565 797.264C657.644 797.264 657.801 797.186 657.88 797.107C657.958 797.107 658.115 797.029 658.194 796.95C658.587 796.793 658.979 796.636 659.294 796.4L661.965 794.828L663.458 793.964L666.13 792.393L666.522 792.157L667.858 791.371L670.687 789.721L672.022 788.936L717.437 762.771L725.294 758.293L744.858 746.978L746.508 746.036L747.294 745.564L749.18 744.464L751.065 743.364L753.422 741.95L755.23 740.928L757.508 739.593L758.53 739.043L758.922 738.807L761.28 737.471L763.087 736.45L765.287 735.193L765.365 735.114C765.444 735.036 765.522 735.036 765.601 734.957C765.68 734.878 765.758 734.8 765.915 734.8C765.994 734.721 766.072 734.643 766.151 734.643C766.229 734.564 766.308 734.486 766.387 734.407C766.387 734.407 766.387 734.407 766.465 734.328L766.544 734.25C766.701 734.093 766.78 734.014 766.858 733.857L766.937 733.778C766.937 733.778 766.937 733.7 767.015 733.7C767.094 733.621 767.172 733.543 767.172 733.386C767.172 733.307 767.251 733.307 767.251 733.228V733.15C767.33 733.071 767.329 732.993 767.329 732.914C767.329 732.836 767.408 732.836 767.408 732.757C767.408 732.757 767.408 732.757 767.408 732.678C767.408 732.6 767.487 732.521 767.487 732.443C767.487 732.364 767.487 732.364 767.565 732.286C767.565 732.286 767.565 732.286 767.565 732.207C767.565 732.128 767.565 732.05 767.565 731.971C767.565 731.893 767.565 731.893 767.565 731.814V731.736C767.565 730.714 767.565 729.693 767.565 728.671C767.487 730.007 766.701 731.186 765.13 732.128Z" fill="#DBDCDD"/>
<mask id="mask2" mask-type="alpha" maskUnits="userSpaceOnUse" x="589" y="688" width="167" height="55">
<path d="M589.6 742.736L755.857 731.343L682.864 688.914L589.6 742.736Z" fill="url(#paint4_linear)"/>
</mask>
<g mask="url(#mask2)">
<path d="M589.6 742.736L755.857 731.343L682.864 688.914L589.6 742.736Z" fill="url(#paint5_linear)"/>
</g>
<path d="M411.793 267.693L377.3 247.814C374.236 246.007 371.721 247.5 371.721 251.036L371.564 314.993C371.564 318.529 374.079 322.85 377.143 324.657L411.636 344.536C414.7 346.343 417.214 344.85 417.214 341.314L417.371 277.357C417.371 273.821 414.857 269.5 411.793 267.693Z" fill="#D8D8D8"/>
<path d="M414.071 327.564C413.914 327.564 413.521 327.486 412.893 327.171L378.4 307.214C376.121 305.879 374.157 302.5 374.157 299.907L374.314 250.957C374.314 250.093 374.55 249.7 374.629 249.7C374.629 249.7 374.629 249.7 374.786 249.7C374.943 249.7 375.336 249.779 375.964 250.093L410.457 269.971C412.736 271.307 414.7 274.686 414.7 277.279L414.543 326.229C414.543 327.093 414.307 327.486 414.229 327.486C414.229 327.564 414.15 327.564 414.071 327.564Z" fill="#444444"/>
<path d="M452.021 244.279L417.529 224.4C415.957 223.536 414.543 223.457 413.521 224.007L373.293 247.421C374.314 246.793 375.729 246.95 377.3 247.814L411.793 267.693C414.857 269.5 417.371 273.821 417.371 277.357L417.214 341.314C417.214 343.043 416.586 344.3 415.564 344.929L455.793 321.514C456.814 320.964 457.443 319.707 457.443 317.9L457.6 253.943C457.6 250.407 455.086 246.086 452.021 244.279Z" fill="#C1C1C1"/>
<path d="M389.007 321.2C390.893 322.3 392.386 324.893 392.307 327.014C392.307 329.136 390.814 330 388.929 328.9C387.043 327.8 385.55 325.207 385.55 323.086C385.629 320.964 387.121 320.179 389.007 321.2Z" fill="#686868"/>
<path d="M393.25 318.764C392.307 318.214 391.443 318.214 390.893 318.529L386.65 321.043C387.279 320.65 388.064 320.729 389.007 321.279C390.893 322.379 392.386 324.971 392.307 327.093C392.307 328.114 391.914 328.9 391.364 329.214L395.607 326.7C396.236 326.386 396.55 325.6 396.55 324.579C396.629 322.379 395.136 319.786 393.25 318.764Z" fill="#595959"/>
<path d="M379.029 315.621C380.129 316.25 380.993 317.821 380.993 319.079C380.993 320.336 380.129 320.886 379.029 320.257C377.929 319.629 377.064 318.057 377.064 316.8C376.986 315.543 377.929 314.993 379.029 315.621Z" fill="#686868"/>
<path d="M381.543 314.207C380.993 313.893 380.521 313.893 380.129 314.05L377.614 315.543C378.007 315.307 378.479 315.386 379.029 315.7C380.129 316.329 380.993 317.9 380.993 319.157C380.993 319.786 380.757 320.257 380.443 320.414L382.957 318.921C383.35 318.686 383.507 318.293 383.507 317.664C383.507 316.329 382.643 314.836 381.543 314.207Z" fill="#595959"/>
<path d="M403.857 329.371C404.957 330 405.821 331.571 405.821 332.829C405.821 334.086 404.957 334.636 403.857 334.007C402.757 333.379 401.893 331.807 401.893 330.55C401.814 329.293 402.757 328.743 403.857 329.371Z" fill="#686868"/>
<path d="M406.371 327.957C405.821 327.643 405.35 327.643 404.957 327.8L402.443 329.293C402.836 329.057 403.307 329.136 403.857 329.45C404.957 330.079 405.821 331.65 405.821 332.907C405.821 333.536 405.586 334.007 405.271 334.164L407.786 332.671C408.179 332.436 408.336 332.043 408.336 331.414C408.336 330.079 407.471 328.586 406.371 327.957Z" fill="#595959"/>
<path d="M470.093 300.614L435.6 280.736C432.536 278.929 430.021 280.421 430.021 283.957L429.864 347.914C429.864 351.45 432.379 355.771 435.443 357.579L469.936 377.457C473 379.264 475.514 377.771 475.514 374.236L475.671 310.279C475.75 306.664 473.236 302.343 470.093 300.614Z" fill="#D8D8D8"/>
<path d="M472.45 360.486C472.293 360.486 471.9 360.407 471.271 360.093L436.779 340.214C434.5 338.879 432.536 335.5 432.536 332.907L432.693 283.957C432.693 283.093 432.929 282.7 433.007 282.7C433.007 282.7 433.007 282.7 433.164 282.7C433.321 282.7 433.714 282.779 434.343 283.093L468.836 302.971C471.114 304.307 473.079 307.686 473.079 310.279L472.921 359.229C472.921 360.093 472.686 360.486 472.607 360.486C472.529 360.407 472.529 360.486 472.45 360.486Z" fill="#444444"/>
<path d="M510.321 277.2L475.829 257.321C474.257 256.457 472.843 256.379 471.821 256.929L431.593 280.343C432.614 279.714 434.029 279.871 435.6 280.736L470.093 300.614C473.157 302.421 475.671 306.743 475.671 310.279L475.514 374.236C475.514 375.964 474.886 377.221 473.864 377.85L514.093 354.436C515.114 353.886 515.743 352.629 515.743 350.821L515.9 286.864C515.979 283.329 513.464 279.007 510.321 277.2Z" fill="#C1C1C1"/>
<path d="M447.386 354.121C449.271 355.221 450.764 357.814 450.686 359.936C450.686 362.057 449.193 362.921 447.307 361.821C445.421 360.721 443.929 358.129 443.929 356.007C444.007 353.886 445.5 353.021 447.386 354.121Z" fill="#686868"/>
<path d="M451.629 351.607C450.686 351.057 449.821 351.057 449.271 351.371L445.029 353.886C445.657 353.493 446.443 353.571 447.386 354.121C449.271 355.221 450.764 357.814 450.686 359.936C450.686 360.957 450.293 361.743 449.743 362.057L453.986 359.543C454.614 359.229 454.929 358.443 454.929 357.421C454.929 355.3 453.436 352.707 451.629 351.607Z" fill="#595959"/>
<path d="M437.329 348.543C438.429 349.171 439.293 350.743 439.293 352C439.293 353.257 438.429 353.807 437.329 353.179C436.229 352.55 435.364 350.979 435.364 349.721C435.364 348.464 436.229 347.914 437.329 348.543Z" fill="#686868"/>
<path d="M439.921 347.05C439.371 346.736 438.9 346.736 438.507 346.893L435.993 348.386C436.386 348.15 436.857 348.229 437.407 348.543C438.507 349.171 439.371 350.743 439.371 352C439.371 352.629 439.136 353.1 438.821 353.257L441.336 351.764C441.729 351.529 441.886 351.136 441.886 350.507C441.886 349.25 441.021 347.757 439.921 347.05Z" fill="#595959"/>
<path d="M462.157 362.293C463.257 362.921 464.121 364.493 464.121 365.75C464.121 367.007 463.257 367.557 462.157 366.929C461.057 366.3 460.193 364.729 460.193 363.471C460.193 362.214 461.057 361.664 462.157 362.293Z" fill="#686868"/>
<path d="M464.75 360.8C464.2 360.486 463.729 360.486 463.336 360.643L460.821 362.136C461.214 361.9 461.686 361.979 462.236 362.293C463.336 362.921 464.2 364.493 464.2 365.75C464.2 366.379 463.964 366.85 463.65 367.007L466.164 365.514C466.557 365.279 466.714 364.886 466.714 364.257C466.714 363 465.85 361.507 464.75 360.8Z" fill="#595959"/>
<path d="M1000.92 532.321C1010.27 537.743 1010.35 546.464 1001 551.886L953.307 579.621C943.957 585.043 928.871 585.043 919.443 579.621L740.064 476.064C730.714 470.643 730.636 461.921 739.986 456.5L787.679 428.764C797.029 423.343 812.114 423.343 821.464 428.764L1000.92 532.321Z" fill="#4F4F4F"/>
<path d="M1001.08 551.964L953.386 579.7C944.036 585.121 928.95 585.121 919.521 579.7L740.064 476.064C735.35 473.314 732.993 469.779 732.993 466.164L732.757 547.879C732.757 551.414 735.114 555.029 739.828 557.779L919.286 661.336C928.636 666.757 943.8 666.757 953.15 661.336L1000.84 633.6C1005.48 630.929 1007.76 627.393 1007.76 623.857L1007.99 542.143C1007.99 545.757 1005.64 549.214 1001.08 551.964Z" fill="#D1D1D1"/>
<path d="M1003.75 550.079C1003.75 550.079 1003.67 550.079 1003.75 550.079C1003.51 550.236 1003.36 550.393 1003.2 550.55C1003.12 550.629 1003.04 550.629 1003.04 550.707C1002.89 550.786 1002.73 550.943 1002.57 551.021C1002.49 551.1 1002.34 551.179 1002.26 551.257C1002.1 551.336 1002.02 551.414 1001.86 551.493C1001.63 551.65 1001.39 551.807 1001.08 551.964L953.386 579.7C944.036 585.121 928.95 585.121 919.521 579.7L740.064 476.064C739.671 475.829 739.279 475.593 738.886 475.279C738.886 475.279 738.886 475.279 738.807 475.279C734.957 472.686 732.993 469.464 732.993 466.164V478.107C733.071 481.643 735.429 485.179 740.064 487.85L919.521 591.486C928.871 596.907 944.036 596.907 953.386 591.486L1001.08 563.75C1005.4 561.236 1007.68 558.014 1007.99 554.714V542.221C1007.99 544.971 1006.58 547.721 1003.75 550.079Z" fill="#4F4F4F"/>
<path d="M780.764 581.429L882.043 639.886V606.65L780.764 548.271V581.429Z" fill="#4F4F4F"/>
<path d="M882.043 637.529L844.25 644.678C840.4 645.386 836.236 644.836 833.329 643.186L771.336 607.357C768.507 605.707 767.486 603.271 768.664 601.071L780.843 579.15L882.043 637.529Z" fill="#7C7C7C"/>
<path d="M844.25 644.6C840.4 645.307 836.236 644.757 833.328 643.107L771.336 607.357C769.293 606.179 768.193 604.529 768.193 602.957V605.236C768.193 606.886 769.293 608.457 771.336 609.636L833.328 645.464C836.157 647.114 840.4 647.664 844.25 646.957L882.043 639.807V637.529L844.25 644.6Z" fill="#6B6B6B"/>
<path d="M719.95 620.321L792.864 662.436L870.65 617.257L797.736 575.143L719.95 620.321Z" fill="#F2F2F2"/>
<path d="M927.771 481.014C932.721 483.843 936.729 490.836 936.729 496.571L936.65 520.928L834.271 461.843L834.35 437.486C834.35 431.75 838.436 429.471 843.386 432.379L927.771 481.014Z" fill="#6B6B6B"/>
<path d="M931.857 478.657L847.471 429.943C844.957 428.529 842.679 428.371 841.107 429.314L837.021 431.671C838.671 430.729 840.95 430.886 843.386 432.3L927.772 481.014C932.722 483.843 936.729 490.836 936.729 496.571L936.65 520.929L940.736 518.571L940.814 494.214C940.814 488.4 936.807 481.486 931.857 478.657Z" fill="#565656"/>
<path d="M930.836 524.229L936.65 520.85L834.35 461.764L828.457 465.143L930.836 524.229Z" fill="#3D3D3D"/>
<path d="M846.843 475.75L922.114 519.121V441.964L846.843 398.514V475.75Z" fill="#F2F2F2"/>
<path d="M834.35 468.521V461.764L828.457 465.143L834.35 468.521Z" fill="#383838"/>
<path d="M894.457 609.793C895.871 610.579 896.971 612.543 896.971 614.193C896.971 615.843 895.793 616.471 894.379 615.686C892.964 614.9 891.864 612.936 891.864 611.286C891.864 609.636 893.043 609.007 894.457 609.793Z" fill="#ED1C24"/>
<path d="M894.457 622.129C895.871 622.914 896.971 624.879 896.971 626.529C896.971 628.179 895.793 628.807 894.379 628.021C892.964 627.236 891.864 625.271 891.864 623.621C891.864 621.971 893.043 621.343 894.457 622.129Z" fill="#707070"/>
<path d="M894.457 634.543C895.871 635.329 896.971 637.293 896.971 638.943C896.971 640.593 895.793 641.221 894.379 640.436C892.964 639.65 891.864 637.686 891.864 636.036C891.864 634.307 893.043 633.679 894.457 634.543Z" fill="#707070"/>
<path d="M757.586 466.321C755.779 467.421 752.793 467.421 750.907 466.321C749.964 465.771 749.493 465.064 749.493 464.357V465.929C749.493 466.636 749.964 467.343 750.907 467.893C752.714 468.993 755.7 468.993 757.586 467.893C758.529 467.343 758.921 466.714 758.921 466.007V464.436C759 465.064 758.529 465.771 757.586 466.321Z" fill="#D81A29"/>
<path d="M757.586 462.471C759.393 463.571 759.472 465.221 757.586 466.321C755.779 467.421 752.793 467.421 750.908 466.321C749.101 465.221 749.022 463.571 750.908 462.471C752.793 461.371 755.779 461.371 757.586 462.471Z" fill="#ED1C24"/>
<path d="M770.314 472.529C768.507 473.629 765.521 473.629 763.636 472.529C762.693 471.979 762.221 471.271 762.221 470.564V472.136C762.221 472.843 762.693 473.55 763.636 474.1C765.443 475.2 768.429 475.2 770.314 474.1C771.257 473.55 771.65 472.921 771.65 472.214V470.643C771.65 471.271 771.257 471.979 770.314 472.529Z" fill="#9F9FA0"/>
<path d="M770.315 468.679C772.122 469.779 772.201 471.429 770.315 472.529C768.508 473.629 765.522 473.629 763.636 472.529C761.829 471.429 761.751 469.779 763.636 468.679C765.522 467.579 768.429 467.579 770.315 468.679Z" fill="#A7A9AC"/>
<path d="M384.371 371.643L373.136 378.164L372.979 439.529L384.214 433.007C386.807 431.514 388.143 429.55 388.143 427.507L388.3 366.143C388.3 368.186 386.964 370.15 384.371 371.643Z" fill="#C1C1C1"/>
<path d="M287.65 390.343L372.9 439.607L373.136 378.164L287.807 328.979L287.65 390.343Z" fill="#D8D8D8"/>
<path d="M384.293 360.643C389.557 363.707 389.557 368.579 384.371 371.643L373.136 378.164L287.886 328.9L308.629 316.879L384.293 360.643Z" fill="#494849"/>
<path d="M373.057 400.714V378.164L287.807 328.979V351.528L373.057 400.793V400.714Z" fill="#414042"/>
<path d="M373.057 400.793L384.371 394.271C386.65 392.936 387.907 391.286 388.221 389.557V387.986L388.3 366.143C388.3 368.107 386.964 370.071 384.371 371.643L373.136 378.164L373.057 400.793Z" fill="#353535"/>
<path d="M372.9 434.5L287.65 385.236V390.343L372.9 439.607L373.136 378.164L372.9 434.5Z" fill="#414042"/>
<path d="M388.064 422.479C388.064 424.443 386.729 426.407 384.136 427.979L372.9 434.5V439.607L384.136 433.086C386.729 431.593 388.064 429.629 388.064 427.586V422.479Z" fill="#353535"/>
<path d="M300.143 377.3C308.157 381.857 314.6 393.014 314.6 402.207C314.6 411.321 308.079 415.014 300.064 410.457C292.05 405.9 285.607 394.743 285.607 385.55C285.607 376.357 292.129 372.743 300.143 377.3Z" fill="#707070"/>
<path d="M317.507 361.271C312.086 358.128 307.136 357.814 303.521 359.936L286.157 370.071C289.693 368.028 294.643 368.264 300.143 371.407C310.986 377.693 319.707 392.857 319.707 405.271C319.707 411.478 317.507 415.8 313.971 417.843L331.336 407.707C334.871 405.664 337.071 401.343 337.071 395.136C337.071 382.721 328.35 367.557 317.507 361.271Z" fill="#595959"/>
<path d="M300.143 371.407C289.3 365.121 280.5 370.15 280.5 382.643C280.5 395.136 289.221 410.221 300.064 416.507C310.907 422.793 319.707 417.764 319.707 405.271C319.707 392.857 310.986 377.693 300.143 371.407ZM299.986 410.614C291.971 405.978 285.529 394.821 285.529 385.628C285.529 376.436 292.05 372.743 300.064 377.378C308.079 382.014 314.521 393.171 314.521 402.364C314.521 411.478 308 415.171 299.986 410.614Z" fill="#4F4F4F"/>
<path d="M303.993 408.178C295.979 403.621 289.536 392.464 289.536 383.271C289.536 379.893 290.479 377.221 291.971 375.493C288.121 376.279 285.529 379.814 285.529 385.55C285.529 394.664 291.971 405.821 299.986 410.457C305.014 413.364 309.414 412.971 312.007 409.986C309.729 410.457 306.979 409.907 303.993 408.178Z" fill="#7F7F7F"/>
<path d="M356.95 382.643L365.907 387.829C366.614 388.221 367.557 387.75 367.557 386.886V381.386C367.557 380.993 367.321 380.6 367.007 380.443L358.05 375.257C357.343 374.864 356.4 375.336 356.4 376.2V381.7C356.4 382.093 356.557 382.486 356.95 382.643Z" fill="#A7A9AC"/>
<path d="M322.143 332.043C317.743 334.636 310.514 334.636 306.036 332.043C303.836 330.786 302.657 329.057 302.657 327.328V331.178C302.657 332.907 303.757 334.557 306.036 335.893C310.514 338.486 317.664 338.486 322.143 335.893C324.343 334.636 325.443 332.986 325.443 331.257V327.407C325.443 329.057 324.343 330.707 322.143 332.043Z" fill="#9F9FA0"/>
<path d="M322.143 322.693C326.621 325.286 326.621 329.45 322.221 331.964C317.821 334.557 310.593 334.557 306.114 331.964C301.636 329.371 301.636 325.207 306.036 322.693C310.514 320.179 317.664 320.179 322.143 322.693Z" fill="#A7A9AC"/>
<path d="M319.787 341.55C319.001 342.021 317.744 342.021 317.037 341.55C316.644 341.314 316.487 341 316.487 340.764V341.393C316.487 341.707 316.644 341.943 317.037 342.179C317.822 342.65 319.08 342.65 319.787 342.179C320.18 341.943 320.337 341.707 320.337 341.393V340.764C320.337 341.079 320.18 341.393 319.787 341.55Z" fill="#9F9FA0"/>
<path d="M319.786 339.979C320.571 340.45 320.571 341.157 319.786 341.55C319 342.021 317.743 342.021 317.036 341.55C316.25 341.079 316.25 340.371 317.036 339.979C317.743 339.507 319 339.507 319.786 339.979Z" fill="#A7A9AC"/>
<path d="M325.994 340.136C325.208 340.607 323.951 340.607 323.244 340.136C322.851 339.9 322.694 339.586 322.694 339.35V339.979C322.694 340.293 322.851 340.529 323.244 340.764C324.03 341.236 325.287 341.236 325.994 340.764C326.387 340.529 326.544 340.293 326.544 339.979V339.35C326.622 339.586 326.387 339.9 325.994 340.136Z" fill="#9F9FA0"/>
<path d="M325.993 338.486C326.779 338.957 326.779 339.664 325.993 340.057C325.207 340.529 323.95 340.529 323.243 340.057C322.457 339.586 322.457 338.879 323.243 338.486C324.029 338.093 325.207 338.093 325.993 338.486Z" fill="#A7A9AC"/>
<path d="M325.444 344.614C324.658 345.086 323.401 345.086 322.694 344.614C322.301 344.379 322.144 344.064 322.144 343.829V344.457C322.144 344.771 322.301 345.007 322.694 345.243C323.48 345.714 324.737 345.714 325.444 345.243C325.837 345.007 325.994 344.771 325.994 344.457V343.829C326.072 344.143 325.837 344.379 325.444 344.614Z" fill="#9F9FA0"/>
<path d="M325.443 343.043C326.229 343.514 326.229 344.221 325.443 344.614C324.657 345.086 323.4 345.086 322.693 344.614C321.907 344.143 321.907 343.436 322.693 343.043C323.479 342.571 324.736 342.571 325.443 343.043Z" fill="#A7A9AC"/>
</g>
<defs>
<filter id="filter0_d" x="-4" y="0" width="1108" height="1108" filterUnits="userSpaceOnUse" color-interpolation-filters="sRGB">
<feFlood flood-opacity="0" result="BackgroundImageFix"/>
<feColorMatrix in="SourceAlpha" type="matrix" values="0 0 0 0 0 0 0 0 0 0 0 0 0 0 0 0 0 0 127 0"/>
<feOffset dy="4"/>
<feGaussianBlur stdDeviation="2"/>
<feColorMatrix type="matrix" values="0 0 0 0 0 0 0 0 0 0 0 0 0 0 0 0 0 0 0.25 0"/>
<feBlend mode="normal" in2="BackgroundImageFix" result="effect1_dropShadow"/>
<feBlend mode="normal" in="SourceGraphic" in2="effect1_dropShadow" result="shape"/>
</filter>
<linearGradient id="paint0_linear" x1="691.002" y1="371.609" x2="565.802" y2="284.686" gradientUnits="userSpaceOnUse">
<stop stop-color="white"/>
<stop offset="1"/>
</linearGradient>
<linearGradient id="paint1_linear" x1="691.002" y1="371.609" x2="565.802" y2="284.686" gradientUnits="userSpaceOnUse">
<stop stop-color="#4E4E4F"/>
<stop offset="1" stop-color="#4E4E4F"/>
</linearGradient>
<linearGradient id="paint2_linear" x1="594.688" y1="699.591" x2="547.95" y2="673.748" gradientUnits="userSpaceOnUse">
<stop stop-color="white"/>
<stop offset="1"/>
</linearGradient>
<linearGradient id="paint3_linear" x1="594.688" y1="699.591" x2="547.95" y2="673.748" gradientUnits="userSpaceOnUse">
<stop stop-color="#4E4E4F"/>
<stop offset="1" stop-color="#4E4E4F"/>
</linearGradient>
<linearGradient id="paint4_linear" x1="705.235" y1="763.334" x2="635.714" y2="707.137" gradientUnits="userSpaceOnUse">
<stop stop-color="white"/>
<stop offset="1"/>
</linearGradient>
<linearGradient id="paint5_linear" x1="705.235" y1="763.334" x2="635.714" y2="707.137" gradientUnits="userSpaceOnUse">
<stop stop-color="#4E4E4F"/>
<stop offset="1" stop-color="#4E4E4F"/>
</linearGradient>
</defs>
</svg>
