<svg width="241" height="186" viewBox="0 0 241 186" fill="none" xmlns="http://www.w3.org/2000/svg">
<path d="M221.861 172.741H19.1359C18.822 172.741 18.5673 172.51 18.5673 172.226V63.9365C18.5673 58.1689 23.7385 53.4758 30.0937 53.4758H210.904C217.259 53.4758 222.429 58.1689 222.429 63.9365V172.226C222.43 172.51 222.175 172.741 221.861 172.741ZM19.7044 171.71H221.293V63.9365C221.293 58.7368 216.632 54.5073 210.904 54.5073H30.0944C24.3649 54.5073 19.7044 58.7368 19.7044 63.9365V171.71Z" fill="black"/>
<path d="M212.73 62.2794H28.2677V163.938H212.73V62.2794Z" fill="#5AA1A9"/>
<path d="M212.73 164.454H28.2677C27.9539 164.454 27.6992 164.222 27.6992 163.938V62.2793C27.6992 61.9945 27.9532 61.7633 28.2677 61.7633H212.73C213.044 61.7633 213.299 61.9945 213.299 62.2793V163.938C213.298 164.222 213.044 164.454 212.73 164.454ZM28.8357 163.423H212.162V62.7948H28.8357V163.423Z" fill="black"/>
<path d="M229.636 185.484H11.3634L0.568604 181.065V172.226H240.43V181.342L229.636 185.484Z" fill="#BCBEC0"/>
<path d="M229.636 186H11.3637C11.2825 186 11.2038 185.984 11.1298 185.953L0.334983 181.536C0.13159 181.452 0.000976562 181.268 0.000976562 181.065V172.226C0.000976562 171.941 0.255055 171.71 0.569567 171.71H240.432C240.746 171.71 241 171.941 241 172.226V181.342C241 181.548 240.864 181.735 240.653 181.816L229.859 185.96C229.788 185.986 229.713 186 229.636 186ZM11.4859 184.969H229.521L239.862 181V172.741H1.13686V180.732L11.4859 184.969Z" fill="black"/>
<path d="M107.105 181.581H0.568591C0.254729 181.581 0 181.35 0 181.065C0 180.78 0.254079 180.55 0.568591 180.55H107.106C107.419 180.55 107.674 180.78 107.674 181.065C107.674 181.35 107.419 181.581 107.105 181.581Z" fill="black"/>
<path d="M240.43 181.857H201.162C200.848 181.857 200.594 181.626 200.594 181.342C200.594 181.057 200.848 180.826 201.162 180.826H240.43C240.744 180.826 240.999 181.057 240.999 181.342C240.999 181.626 240.745 181.857 240.43 181.857Z" fill="black"/>
<path d="M125.369 181.581H113.27C112.956 181.581 112.701 181.35 112.701 181.065C112.701 180.78 112.956 180.55 113.27 180.55H125.369C125.683 180.55 125.937 180.78 125.937 181.065C125.937 181.35 125.683 181.581 125.369 181.581Z" fill="black"/>
<path d="M83.6667 73.0526H39.5298V113.108H83.6667V73.0526Z" fill="#FFE480"/>
<path d="M201.162 73.0526H92.9519V81.7547H201.162V73.0526Z" fill="white"/>
<path d="M201.162 88.73H92.9519V97.4309H201.162V88.73Z" fill="white"/>
<path d="M201.162 104.406H92.9519V113.108H201.162V104.406Z" fill="white"/>
<path d="M147.056 121.119H38.8448V129.822H147.056V121.119Z" fill="white"/>
<path d="M201.162 121.119H158.015V129.822H201.162V121.119Z" fill="white"/>
<path d="M81.9915 137.694H38.8448V146.395H81.9915V137.694Z" fill="white"/>
<path d="M166.902 53.9912L138.299 7.53793L120.763 16.4311L110.96 0.515381L48.7831 32.0478L62.2942 53.9912H166.902Z" fill="#87DDB6"/>
<path d="M166.902 54.5067H62.2942C62.0888 54.5067 61.8991 54.4047 61.7977 54.2419L48.2867 32.2991C48.1333 32.0515 48.2315 31.7371 48.505 31.5985L110.682 0.0655142C110.955 -0.073073 111.302 0.0153999 111.456 0.263088L120.981 15.7294L138.021 7.08688C138.154 7.02083 138.311 7.00432 138.454 7.04206C138.599 7.07922 138.723 7.16707 138.795 7.28679L167.398 53.7401C167.497 53.8999 167.495 54.0962 167.393 54.2531C167.29 54.41 167.104 54.5067 166.902 54.5067ZM62.6275 53.4752H165.934L138.081 8.23863L121.04 16.8811C120.769 17.0191 120.421 16.9313 120.266 16.6824L110.741 1.21669L49.5571 32.246L62.6275 53.4752Z" fill="black"/>
<path d="M73.7212 40.8036C73.5224 40.8036 73.3294 40.7081 73.2247 40.54C73.0714 40.2912 73.1695 39.9768 73.4431 39.8382L111.449 20.5634C111.722 20.4254 112.07 20.5127 112.222 20.7616C112.375 21.0104 112.278 21.3248 112.004 21.4633L73.998 40.7382C73.911 40.7824 73.8154 40.8036 73.7212 40.8036Z" fill="black"/>
<path d="M101.779 40.8143C101.58 40.8143 101.387 40.7182 101.283 40.5501C101.129 40.3012 101.227 39.9875 101.501 39.8483L132.215 24.2729C132.486 24.1349 132.834 24.2216 132.988 24.471C133.141 24.7199 133.043 25.0342 132.77 25.1728L102.056 40.7489C101.969 40.7931 101.873 40.8143 101.779 40.8143Z" fill="black"/>
<path d="M131.512 39.974C131.313 39.974 131.12 39.8784 131.016 39.7103C130.863 39.4615 130.96 39.1472 131.235 39.008L138.897 35.1228C139.17 34.9854 139.517 35.0727 139.67 35.3216C139.823 35.5704 139.725 35.8848 139.452 36.0234L131.79 39.9085C131.702 39.9527 131.606 39.974 131.512 39.974Z" fill="black"/>
<path d="M120.763 16.9473C120.564 16.9473 120.371 16.8517 120.266 16.6831L110.464 0.767361C110.352 0.585723 110.372 0.360449 110.514 0.195913C110.656 0.0343264 110.893 -0.0376276 111.114 0.0195765L138.454 7.04151C138.676 7.09872 138.837 7.27034 138.865 7.47733C138.891 7.68492 138.778 7.88603 138.578 7.98687L121.041 16.8812C120.953 16.926 120.857 16.9473 120.763 16.9473ZM112.125 1.35119L120.981 15.7295L136.824 7.69553L112.125 1.35119Z" fill="black"/>
</svg>
