<svg width="218" height="210" viewBox="0 0 218 210" fill="none" xmlns="http://www.w3.org/2000/svg">
<path d="M168.587 133.078H49.4135C22.4854 133.078 0.660217 110.231 0.660217 82.0492V190.583C0.660217 200.926 8.66968 209.309 18.5512 209.309H199.449C209.329 209.309 217.34 200.925 217.34 190.583V82.0492C217.34 110.231 195.514 133.078 168.587 133.078Z" fill="#80684E"/>
<path d="M199.449 210H18.5512C8.32184 210 0 201.29 0 190.583V82.0492C0 81.6677 0.29578 81.3582 0.660224 81.3582C1.02467 81.3582 1.31971 81.667 1.31971 82.0492C1.31971 109.806 22.8943 132.388 49.4135 132.388H168.587C195.106 132.388 216.68 109.806 216.68 82.0492C216.68 81.6677 216.975 81.3582 217.339 81.3582C217.703 81.3582 217.999 81.667 217.999 82.0492V190.583C218 201.29 209.677 210 199.449 210ZM1.31971 93.9487V190.583C1.31971 200.527 9.04998 208.619 18.5512 208.619H199.449C208.95 208.619 216.68 200.527 216.68 190.583V93.9487C211.531 116.75 191.922 133.769 168.587 133.769H49.4142C26.0785 133.768 6.46871 116.75 1.31971 93.9487Z" fill="black"/>
<path d="M199.449 40.7357H18.5512C8.66968 40.7357 0.660217 49.1191 0.660217 59.462V82.0494C0.660217 110.231 22.4861 133.078 49.4135 133.078H168.587C195.514 133.078 217.339 110.231 217.339 82.0494V59.462C217.34 49.1191 209.328 40.7357 199.449 40.7357Z" fill="#997D5D"/>
<path d="M168.587 133.768H49.4135C22.1677 133.768 0 110.567 0 82.0486V59.4612C0 48.7543 8.32184 40.0447 18.5512 40.0447H199.449C209.678 40.0447 218 48.7551 218 59.4612V82.0486C218 110.568 195.834 133.768 168.587 133.768ZM18.5504 41.4268C9.04924 41.4268 1.31893 49.5172 1.31893 59.462V82.0494C1.31893 109.806 22.8936 132.388 49.4127 132.388H168.586C195.105 132.388 216.679 109.806 216.679 82.0494V59.462C216.679 49.5164 208.949 41.4268 199.447 41.4268H18.5504Z" fill="black"/>
<path d="M159.037 160.387C159.037 166.851 164.043 172.09 170.218 172.09C176.396 172.09 181.401 166.851 181.401 160.387V152.585H159.036V160.387H159.037Z" fill="#FFE480"/>
<path d="M170.218 172.781C163.689 172.781 158.377 167.221 158.377 160.387V152.585C158.377 152.203 158.672 151.894 159.037 151.894H181.401C181.766 151.894 182.061 152.202 182.061 152.585V160.387C182.061 167.221 176.749 172.781 170.218 172.781ZM159.696 153.275V160.387C159.696 166.459 164.416 171.399 170.218 171.399C176.02 171.399 180.741 166.459 180.741 160.387V153.275H159.696Z" fill="black"/>
<path d="M186.433 139.569H181.401V152.584H186.433V139.569Z" fill="#80684E"/>
<path d="M186.433 153.275H181.401C181.037 153.275 180.742 152.966 180.742 152.584V139.569C180.742 139.188 181.037 138.878 181.401 138.878H186.433C186.797 138.878 187.093 139.187 187.093 139.569V152.584C187.093 152.966 186.797 153.275 186.433 153.275ZM182.061 151.893H185.773V140.26H182.061V151.893Z" fill="black"/>
<path d="M159.037 139.569H154.006V152.584H159.037V139.569Z" fill="#80684E"/>
<path d="M159.037 153.275H154.006C153.641 153.275 153.345 152.966 153.345 152.584V139.569C153.345 139.188 153.641 138.878 154.006 138.878H159.037C159.401 138.878 159.696 139.187 159.696 139.569V152.584C159.696 152.966 159.401 153.275 159.037 153.275ZM154.665 151.893H158.377V140.26H154.665V151.893Z" fill="black"/>
<path d="M159.037 133.078V139.569V152.584H181.401V139.569V133.078H159.037Z" fill="#FFE480"/>
<path d="M181.401 153.275H159.037C158.672 153.275 158.377 152.966 158.377 152.584V133.078C158.377 132.697 158.672 132.387 159.037 132.387H181.401C181.766 132.387 182.061 132.696 182.061 133.078V152.584C182.061 152.966 181.766 153.275 181.401 153.275ZM159.696 151.894H180.742V133.769H159.696V151.894Z" fill="black"/>
<path d="M170.218 153.275C169.854 153.275 169.558 152.966 169.558 152.584V142.831C169.558 142.449 169.854 142.14 170.218 142.14C170.583 142.14 170.878 142.449 170.878 142.831V152.584C170.878 152.966 170.583 153.275 170.218 153.275Z" fill="black"/>
<path d="M133.351 0.69104H84.6476C74.7676 0.69104 66.7567 9.07525 66.7567 19.4165V40.7356H74.2109V19.4165C74.2109 13.3937 78.8942 8.49319 84.6476 8.49319H133.351C139.106 8.49319 143.788 13.3937 143.788 19.4165V40.7356H151.243V19.4165C151.243 9.07446 143.234 0.69104 133.351 0.69104Z" fill="#FFE480"/>
<path d="M151.243 41.4267H143.788C143.423 41.4267 143.128 41.1179 143.128 40.7356V19.4165C143.128 13.7744 138.742 9.18346 133.351 9.18346H84.6476C79.2564 9.18346 74.8711 13.7744 74.8711 19.4165V40.7356C74.8711 41.1171 74.5753 41.4267 74.2109 41.4267H66.7567C66.3923 41.4267 66.0965 41.1179 66.0965 40.7356V19.4165C66.0965 8.71039 74.4183 0 84.6476 0H133.351C143.581 0 151.902 8.71039 151.902 19.4165V40.7356C151.902 41.1179 151.607 41.4267 151.243 41.4267ZM144.448 40.0453H150.583V19.4165C150.583 9.47173 142.852 1.38132 133.351 1.38132H84.6476C75.1464 1.38132 67.4169 9.47173 67.4169 19.4165V40.0453H73.5514V19.4165C73.5514 13.0123 78.529 7.80215 84.6476 7.80215H133.351C139.47 7.80215 144.448 13.0123 144.448 19.4165V40.0453Z" fill="black"/>
<path d="M166.401 92.7528H51.6002V113.04H166.401V92.7528Z" fill="#80684E"/>
<path d="M166.401 113.731H51.6009C51.2365 113.731 50.9415 113.422 50.9415 113.04V92.7521C50.9415 92.3706 51.2365 92.061 51.6009 92.061H166.401C166.766 92.061 167.061 92.3698 167.061 92.7521V113.04C167.061 113.422 166.766 113.731 166.401 113.731ZM52.2604 112.349H165.741V93.4439H52.2604V112.349Z" fill="black"/>
</svg>
