<svg width="241" height="186" viewBox="0 0 241 186" fill="none" xmlns="http://www.w3.org/2000/svg">
<path d="M142.047 154.702C105.789 154.702 76.3961 127.077 76.3961 92.9994C76.3961 58.9235 105.789 31.298 142.047 31.298V0C87.3972 0 43.094 41.6373 43.094 92.9994C43.094 144.363 87.3972 186 142.047 186C169.372 186 194.11 175.591 212.017 158.761L188.469 136.629C176.59 147.796 160.177 154.702 142.047 154.702Z" fill="#D47872"/>
<path d="M142.047 0V31.298C178.305 31.298 207.698 58.9235 207.698 92.9994C207.698 110.039 200.351 125.464 188.469 136.629L212.017 158.761C229.925 141.931 241 118.681 241 92.9994C241.001 41.6373 196.697 0 142.047 0Z" fill="#FFE480"/>
<path d="M87.88 35.8678C87.7307 35.8678 87.5813 35.8095 87.4734 35.6959C87.2751 35.4851 87.2962 35.1629 87.5212 34.9771C96.8489 27.2294 108.086 21.4924 120.019 18.3871C120.31 18.3125 120.608 18.471 120.686 18.7424C120.766 19.0133 120.596 19.294 120.309 19.3692C108.534 22.4337 97.4439 28.0949 88.2389 35.7408C88.136 35.8252 88.0083 35.8678 87.88 35.8678Z" fill="black"/>
<path d="M60.2204 93.5091C59.9211 93.5091 59.6781 93.282 59.6781 92.9994C59.6781 81.2016 62.4287 69.875 67.8536 59.3336C67.9826 59.0802 68.3086 58.9759 68.5775 59.0971C68.8465 59.2194 68.9599 59.524 68.8298 59.7774C63.4761 70.179 60.7621 81.3571 60.7621 92.9994C60.7627 93.2825 60.5198 93.5091 60.2204 93.5091Z" fill="black"/>
<path d="M142.047 170.414C132.128 170.414 122.43 168.774 113.224 165.542C101.042 161.264 89.9495 154.204 81.1467 145.122C80.9447 144.914 80.9602 144.592 81.1814 144.402C81.4039 144.213 81.746 144.229 81.9468 144.436C90.6349 153.398 101.581 160.367 113.603 164.588C122.688 167.777 132.258 169.395 142.047 169.395C142.346 169.395 142.589 169.623 142.589 169.905C142.589 170.185 142.347 170.414 142.047 170.414Z" fill="black"/>
<path d="M95.0179 111.182V124.95C98.4131 129.357 102.486 133.273 107.104 136.55V111.182H95.0179Z" fill="#5AA1A9"/>
<path d="M107.104 137.059C106.988 137.059 106.873 137.026 106.776 136.957C102.122 133.653 98.0184 129.713 94.5792 125.249C94.5123 125.163 94.4763 125.058 94.4763 124.951V111.183C94.4763 110.901 94.7187 110.673 95.0186 110.673H107.104C107.404 110.673 107.647 110.901 107.647 111.183V136.55C107.647 136.743 107.53 136.92 107.346 137.007C107.269 137.043 107.186 137.059 107.104 137.059ZM95.5603 124.784C98.6989 128.833 102.395 132.439 106.561 135.515V111.692H95.5603V124.784Z" fill="black"/>
<path d="M115.511 86.1436V141.509C119.317 143.352 123.361 144.822 127.597 145.842V86.1436H115.511Z" fill="#87DDB6"/>
<path d="M127.597 146.352C127.553 146.352 127.508 146.347 127.463 146.336C123.286 145.33 119.18 143.859 115.262 141.961C115.082 141.874 114.969 141.699 114.969 141.509V86.1436C114.969 85.8622 115.211 85.6339 115.511 85.6339H127.597C127.897 85.6339 128.14 85.8617 128.14 86.1436V145.842C128.14 146 128.062 146.149 127.93 146.245C127.833 146.317 127.716 146.352 127.597 146.352ZM116.053 141.196C119.597 142.89 123.294 144.229 127.055 145.182V86.6533H116.053V141.196Z" fill="black"/>
<path d="M136.005 118.768V147.253C137.991 147.447 140.007 147.548 142.048 147.548C144.089 147.548 146.104 147.447 148.09 147.254V118.768H136.005Z" fill="#FFE480"/>
<path d="M142.047 148.057C140.024 148.057 137.973 147.958 135.948 147.761C135.672 147.733 135.463 147.515 135.463 147.254V118.769C135.463 118.488 135.705 118.259 136.005 118.259H148.09C148.389 118.259 148.632 118.487 148.632 118.769V147.255C148.632 147.516 148.423 147.735 148.146 147.761C146.12 147.958 144.068 148.057 142.047 148.057ZM136.547 146.793C140.203 147.118 143.885 147.12 147.548 146.793V119.277H136.547V146.793Z" fill="black"/>
<path d="M156.497 90.3164V145.843C160.735 144.823 164.776 143.351 168.582 141.509V90.317H156.497V90.3164Z" fill="#997D5D"/>
<path d="M156.497 146.352C156.379 146.352 156.261 146.316 156.164 146.245C156.032 146.149 155.955 146 155.955 145.842V90.316C155.955 90.0346 156.197 89.8063 156.497 89.8063H168.582C168.882 89.8063 169.125 90.034 169.125 90.316V141.508C169.125 141.699 169.011 141.874 168.83 141.961C164.911 143.859 160.807 145.33 156.632 146.335C156.587 146.347 156.542 146.352 156.497 146.352ZM157.039 90.8256V145.182C160.798 144.229 164.494 142.889 168.041 141.197V90.8256H157.039Z" fill="black"/>
<path d="M189.076 124.95V76.2777H176.991V136.552C181.609 133.274 185.68 129.359 189.076 124.95Z" fill="#7C7D80"/>
<path d="M176.991 137.061C176.908 137.061 176.825 137.043 176.75 137.008C176.566 136.922 176.449 136.745 176.449 136.552V76.2777C176.449 75.9964 176.692 75.7681 176.992 75.7681H189.077C189.376 75.7681 189.619 75.9958 189.619 76.2777V124.95C189.619 125.057 189.583 125.162 189.516 125.249C186.074 129.715 181.971 133.654 177.319 136.957C177.222 137.026 177.107 137.061 176.991 137.061ZM177.533 76.7874V135.516C181.698 132.441 185.395 128.836 188.534 124.784V76.7874H177.533Z" fill="black"/>
<path d="M43.0941 158.761C66.595 158.761 85.6464 140.856 85.6464 118.769C85.6464 96.6813 66.595 78.7761 43.0941 78.7761C19.5931 78.7761 0.541748 96.6813 0.541748 118.769C0.541748 140.856 19.5931 158.761 43.0941 158.761Z" fill="#FFE480"/>
<path d="M43.094 159.27C19.3322 159.27 0 141.101 0 118.768C0 96.4362 19.3322 78.267 43.094 78.267C66.8558 78.267 86.188 96.4362 86.188 118.768C86.188 141.101 66.8558 159.27 43.094 159.27ZM43.094 79.2857C19.9297 79.2857 1.084 96.9977 1.084 118.768C1.084 140.539 19.9297 158.251 43.094 158.251C66.2583 158.251 85.104 140.539 85.104 118.768C85.104 96.9977 66.2589 79.2857 43.094 79.2857Z" fill="black"/>
<path d="M44.517 151.714V145.312H43.3208C42.9273 145.312 42.512 145.3 42.072 145.278C41.6307 145.254 41.1857 145.219 40.7432 145.175L40.005 145.101V151.714H38.613V144.876L38.0998 144.762C35.2562 144.128 32.8143 142.912 30.8397 141.148C27.7922 138.415 25.9998 134.64 25.5065 129.922H26.6605C27.0733 134.298 28.7541 137.828 31.6634 140.419C33.2835 141.944 35.3368 143.073 37.7527 143.764L38.6136 144.01V122.437L40.0056 122.801V144.194L40.5622 144.28C41.5111 144.428 42.4643 144.503 43.3971 144.503H44.517V124.905L45.909 125.232V144.386L46.6701 144.282C49.9073 143.841 52.6894 142.742 54.9424 141.019C57.9669 138.725 59.5021 135.665 59.5021 131.927C59.5021 127.779 57.6905 124.609 54.1187 122.505C52.3783 121.515 48.76 120.283 43.0531 118.736L42.0782 118.456C35.8897 116.826 31.9838 115.32 30.4585 113.974C27.9992 111.889 26.808 109.274 26.808 105.967C26.808 102.133 28.1957 99.0975 31.051 96.6883C33.0064 95.1196 35.369 94.0898 38.0632 93.6372L38.6124 93.5446V85.823H40.0044V93.3995L40.776 93.283C41.0512 93.2411 41.3214 93.2201 41.5799 93.2201H43.1678C43.3202 93.2201 43.5061 93.2399 43.7231 93.2801L44.5158 93.4234V85.823H45.9078V93.4869L46.4724 93.5684C49.6017 94.021 52.2829 95.2111 54.4434 97.1065C57.2337 99.4726 58.824 102.788 59.1823 106.976H58.1107C57.8795 103.116 56.3902 99.991 53.6823 97.6797C51.7356 95.998 49.3866 94.8948 46.7017 94.3991L45.9078 94.2529V114.105L44.5158 113.742V93.9599H41.503C41.159 93.9599 40.8337 93.989 40.5374 94.0449L40.0038 94.1463V112.328L38.6117 111.964V94.2214L37.7905 94.4061C35.3697 94.9507 33.3634 95.8839 31.8251 97.1799C29.2208 99.3282 27.897 102.286 27.897 105.968C27.897 108.791 29.0876 111.267 31.4365 113.323C33.1992 114.831 36.789 116.222 42.4153 117.584C42.569 117.645 42.7475 117.689 42.9614 117.717C43.0438 117.728 43.2018 117.764 43.4498 117.857C46.377 118.539 48.7947 119.224 50.7247 119.922C52.6417 120.615 54.1844 121.293 55.3093 121.937C58.9585 124.148 60.7398 127.21 60.7398 131.287C60.7398 135.533 59.1624 138.963 56.053 141.48C53.5962 143.428 50.3746 144.673 46.4823 145.177L45.9072 145.251V151.714H44.517Z" fill="black"/>
</svg>
