<svg width="240" height="177" viewBox="0 0 240 177" fill="none" xmlns="http://www.w3.org/2000/svg">
<path d="M166.976 99.702C166.976 57.011 131.059 22.4052 86.7532 22.4052C42.4464 22.4052 6.53003 57.011 6.53003 99.702C6.53003 123.174 17.4019 144.186 34.541 158.362V132.218C34.541 122.487 42.7304 114.598 52.8288 114.598H69.4683H103.943H120.677C130.777 114.598 138.964 122.487 138.964 132.218V158.362C156.103 144.186 166.976 123.174 166.976 99.702ZM116.594 87.5163L113.262 86.0154C111.887 99.0034 100.501 109.137 86.6584 109.137C73.3126 109.137 62.251 99.7154 60.2428 87.3983L56.9081 88.594C56.5895 86.8975 56.4129 85.1551 56.4129 83.3714C56.4129 67.2776 69.954 54.2297 86.6577 54.2297C103.362 54.2297 116.902 67.2776 116.902 83.3714C116.903 84.7791 116.794 86.1613 116.594 87.5163Z" fill="#D47872"/>
<path d="M227.991 0.529907H142.988C136.658 0.529907 131.528 5.47395 131.528 11.5732V65.1585C131.528 71.2577 136.658 76.2006 142.988 76.2006V92.6704L161.075 76.2006H227.991C234.32 76.2006 239.451 71.2577 239.451 65.1585V11.5732C239.451 5.47395 234.32 0.529907 227.991 0.529907Z" fill="white"/>
<path d="M142.988 93.1994C142.915 93.1994 142.841 93.1849 142.77 93.1565C142.569 93.0723 142.438 92.881 142.438 92.6703V76.7181C136.071 76.4408 130.978 71.3611 130.978 65.1583V11.573C130.978 5.19106 136.366 0 142.988 0H227.991C234.612 0 240 5.19106 240 11.573V65.1583C240 71.5391 234.612 76.7302 227.991 76.7302H161.295L143.366 93.0548C143.262 93.1498 143.125 93.1994 142.988 93.1994ZM142.988 1.0589C136.971 1.0589 132.077 5.77592 132.077 11.573V65.1583C132.077 70.9555 136.971 75.6713 142.988 75.6713C143.291 75.6713 143.537 75.908 143.537 76.2004V91.4406L160.698 75.816C160.8 75.7227 160.935 75.6713 161.076 75.6713H227.991C234.008 75.6713 238.902 70.9555 238.902 65.1583V11.573C238.902 5.77592 234.008 1.0589 227.991 1.0589H142.988Z" fill="black"/>
<path d="M60.2429 87.3982C62.2511 99.716 73.3121 109.137 86.6585 109.137C100.502 109.137 111.887 99.0034 113.263 86.0154L91.4754 76.2006L60.2429 87.3982Z" fill="#FFE480"/>
<path d="M86.6585 54.2296C69.9548 54.2296 56.4136 67.2775 56.4136 83.3714C56.4136 85.155 56.5896 86.8975 56.9088 88.5939L60.2435 87.3982L91.4761 76.2005L113.263 86.0154L116.595 87.5163C116.794 86.1619 116.904 84.7791 116.904 83.3714C116.903 67.2775 103.363 54.2296 86.6585 54.2296Z" fill="#997D5D"/>
<path d="M120.677 114.599H103.942L86.7528 140.427H86.6585L69.4679 114.599H52.8283C42.7299 114.599 34.5405 122.487 34.5405 132.218V158.363C41.7874 164.356 50.1427 169.138 59.2878 172.348V143.188V172.348C67.8555 175.357 77.1049 177 86.7528 177C96.4012 177 105.649 175.357 114.218 172.348V143.188V172.348C123.362 169.138 131.718 164.356 138.963 158.363V132.218C138.964 122.487 130.776 114.599 120.677 114.599Z" fill="#5AA1A9"/>
<path d="M152.509 46.6192C157.24 46.6192 161.076 42.9238 161.076 38.3652C161.076 33.8066 157.24 30.1112 152.509 30.1112C147.778 30.1112 143.943 33.8066 143.943 38.3652C143.943 42.9238 147.778 46.6192 152.509 46.6192Z" fill="#87DDB6"/>
<path d="M185.489 46.6185C190.22 46.6185 194.055 42.9233 194.055 38.3651C194.055 33.8069 190.22 30.1117 185.489 30.1117C180.759 30.1117 176.923 33.8069 176.923 38.3651C176.923 42.9233 180.759 46.6185 185.489 46.6185Z" fill="#D47872"/>
<path d="M218.47 46.6185C223.201 46.6185 227.036 42.9233 227.036 38.3651C227.036 33.8069 223.201 30.1117 218.47 30.1117C213.739 30.1117 209.904 33.8069 209.904 38.3651C209.904 42.9233 213.739 46.6185 218.47 46.6185Z" fill="#FFE480"/>
<path d="M0.550029 67.8188C0.483423 67.8188 0.416193 67.8073 0.350215 67.7825C0.0668252 67.6759 -0.0726762 67.3683 0.0379149 67.0959C10.3996 41.5601 32.8477 21.6495 60.0864 13.8357C60.3792 13.7509 60.684 13.9113 60.7701 14.1917C60.8562 14.472 60.6909 14.7668 60.4 14.8492C33.4836 22.5722 11.3012 42.2479 1.06214 67.4828C0.977314 67.6916 0.770583 67.8188 0.550029 67.8188Z" fill="black"/>
</svg>
