<svg width="148" height="257" viewBox="0 0 148 257" fill="none" xmlns="http://www.w3.org/2000/svg">
<path d="M93.4226 18.512H55.1169C54.7728 18.512 54.4943 18.2334 54.4943 17.8885C54.4943 17.5437 54.7728 17.2651 55.1169 17.2651H93.4226C93.7667 17.2651 94.046 17.5437 94.046 17.8885C94.046 18.2334 93.7667 18.512 93.4226 18.512Z" fill="black"/>
<path d="M93.4227 12.0356H73.9991C73.655 12.0356 73.3757 11.7571 73.3757 11.4122C73.3757 11.0674 73.6543 10.7888 73.9991 10.7888H93.4227C93.7668 10.7888 94.046 11.0674 94.046 11.4122C94.046 11.7571 93.7668 12.0356 93.4227 12.0356Z" fill="black"/>
<path d="M134.427 257H13.5717C6.08838 257 0 250.91 0 243.426V221.305C0 220.96 0.278558 220.681 0.623372 220.681H147.377C147.721 220.681 148 220.96 148 221.305V243.426C148 250.911 141.911 257 134.427 257ZM1.24601 221.928V243.426C1.24601 250.224 6.77587 255.754 13.5717 255.754H134.427C141.224 255.754 146.754 250.224 146.754 243.426V221.928H1.24601Z" fill="black"/>
<path d="M147.377 29.7592H0.623291V221.305H147.377V29.7592Z" fill="#87DDB6"/>
<path d="M147.377 221.928H0.623372C0.279271 221.928 0 221.65 0 221.305V29.7592C0 29.415 0.278558 29.1357 0.623372 29.1357H147.377C147.721 29.1357 148 29.4143 148 29.7592V221.305C148 221.65 147.721 221.928 147.377 221.928ZM1.24601 220.682H146.753V30.3818H1.24601V220.682Z" fill="black"/>
<path d="M147.377 30.3825H0.623372C0.279271 30.3825 0 30.1039 0 29.7591V13.5718C0 6.08804 6.08767 0 13.5717 0H134.427C141.911 0 148 6.08804 148 13.5718V29.7591C148 30.1039 147.721 30.3825 147.377 30.3825ZM1.24601 29.1364H146.753V13.5718C146.753 6.77486 141.223 1.24611 134.426 1.24611H13.5717C6.77587 1.24611 1.24601 6.77557 1.24601 13.5718V29.1364Z" fill="black"/>
<path d="M73.9997 250.44C80.4061 250.44 85.5994 245.246 85.5994 238.84C85.5994 232.433 80.4061 227.239 73.9997 227.239C67.5934 227.239 62.4 232.433 62.4 238.84C62.4 245.246 67.5934 250.44 73.9997 250.44Z" fill="#BCBEC0"/>
<path d="M73.999 251.064C67.2602 251.064 61.7773 245.58 61.7773 238.84C61.7773 232.099 67.2602 226.617 73.999 226.617C80.7393 226.617 86.2228 232.099 86.2228 238.84C86.2228 245.58 80.7386 251.064 73.999 251.064ZM73.999 227.864C67.9463 227.864 63.0234 232.789 63.0234 238.841C63.0234 244.894 67.947 249.818 73.999 249.818C80.0518 249.818 84.9761 244.894 84.9761 238.841C84.9761 232.788 80.0518 227.864 73.999 227.864Z" fill="black"/>
<path d="M108.119 146.007C109.997 142.381 111.319 138.423 111.951 134.234L101.593 130.867C101.66 130.085 101.712 129.299 101.712 128.5C101.712 127.701 101.66 126.914 101.593 126.13L111.95 122.765C111.317 118.575 109.997 114.617 108.119 110.992L97.7556 114.358C96.9356 113.001 96.0102 111.718 94.9771 110.529L101.377 101.717C98.4737 98.7766 95.0933 96.3129 91.363 94.4369L84.9782 103.225C83.5334 102.612 82.016 102.142 80.4572 101.783V90.8938C78.4432 90.564 76.3786 90.3851 74.2691 90.3851C72.1581 90.3851 70.0928 90.564 68.0766 90.8953V101.783C66.5186 102.142 65.0025 102.612 63.5585 103.225L57.1751 94.4369C53.4456 96.3136 50.0637 98.7787 47.1591 101.718L53.5588 110.528C52.5258 111.718 51.5997 113.001 50.7811 114.358L40.4217 110.992C38.5416 114.617 37.2215 118.577 36.5896 122.765L46.944 126.13C46.877 126.914 46.8236 127.701 46.8236 128.5C46.8236 129.302 46.877 130.088 46.944 130.87L36.5896 134.234C37.2215 138.424 38.5416 142.382 40.4217 146.007L50.7811 142.643C51.599 143.999 52.5258 145.282 53.5588 146.473L47.1606 155.282C50.0666 158.222 53.4456 160.685 57.1751 162.562L63.5599 153.775C65.0026 154.388 66.5193 154.858 68.0795 155.218V166.105C70.0935 166.433 72.1596 166.612 74.2691 166.612C76.3778 166.612 78.4432 166.433 80.4572 166.105L80.4607 155.217C82.0195 154.856 83.537 154.387 84.979 153.773L91.3651 162.561C95.0933 160.684 98.473 158.221 101.376 155.281L94.9793 146.471C96.0137 145.281 96.9363 143.996 97.7549 142.64L108.119 146.007ZM74.2698 147.071C64.0137 147.071 55.6982 138.757 55.6982 128.5C55.6982 118.243 64.0137 109.928 74.2698 109.928C84.5258 109.928 92.8406 118.243 92.8406 128.5C92.8406 138.757 84.5258 147.071 74.2698 147.071Z" fill="#D47872"/>
<path d="M74.2697 167.236C72.1923 167.236 70.0764 167.062 67.9797 166.721C67.6777 166.671 67.4568 166.41 67.4568 166.106V155.711C66.1502 155.387 64.9163 154.995 63.7757 154.54L57.6795 162.929C57.5007 163.176 57.1673 163.256 56.8958 163.12C53.115 161.217 49.6896 158.727 46.7181 155.721C46.5037 155.504 46.4773 155.163 46.6575 154.916L52.7673 146.505C51.9516 145.529 51.1943 144.484 50.5075 143.387L40.6141 146.601C40.3298 146.696 40.0106 146.567 39.8696 146.295C37.9125 142.524 36.6024 138.498 35.974 134.327C35.9277 134.025 36.1079 133.735 36.3979 133.642L46.2835 130.43C46.2387 129.837 46.2009 129.177 46.2009 128.5C46.2009 127.825 46.2387 127.165 46.2835 126.571L36.3979 123.357C36.1079 123.263 35.9277 122.973 35.974 122.672C36.6017 118.503 37.9125 114.477 39.8681 110.706C40.0092 110.435 40.3291 110.308 40.6141 110.4L50.5075 113.615C51.1964 112.516 51.9545 111.47 52.7673 110.498L46.6562 102.085C46.4766 101.838 46.503 101.498 46.7167 101.281C49.6882 98.2736 53.1129 95.7842 56.8958 93.8805C57.163 93.7437 57.4992 93.8235 57.6795 94.0707L63.7757 102.463C64.917 102.006 66.1509 101.614 67.4547 101.292V90.896C67.4547 90.5903 67.6762 90.331 67.9762 90.2811C72.161 89.5929 76.3664 89.5936 80.5583 90.2797C80.859 90.3296 81.0806 90.5896 81.0806 90.8945V101.292C82.385 101.614 83.6203 102.006 84.7624 102.463L90.8593 94.0707C91.0395 93.8235 91.3744 93.7444 91.643 93.8805C95.4267 95.7828 98.8506 98.2729 101.82 101.279C102.034 101.496 102.061 101.836 101.881 102.083L95.7693 110.497C96.5794 111.466 97.3367 112.511 98.0284 113.614L107.925 110.4C108.214 110.307 108.532 110.435 108.671 110.705C110.626 114.477 111.936 118.503 112.565 122.671C112.612 122.973 112.432 123.263 112.142 123.357L102.252 126.571C102.297 127.164 102.334 127.822 102.334 128.499C102.334 129.175 102.297 129.834 102.254 130.426L112.143 133.641C112.433 133.735 112.613 134.026 112.567 134.326C111.938 138.492 110.627 142.519 108.671 146.293C108.531 146.565 108.213 146.695 107.925 146.6L98.0284 143.385C97.3345 144.492 96.5779 145.537 95.7715 146.501L101.88 154.915C102.06 155.163 102.033 155.503 101.819 155.72C98.8513 158.726 95.4281 161.216 91.6451 163.119C91.3737 163.255 91.0402 163.175 90.8614 162.928L84.7638 154.537C83.626 154.992 82.3935 155.385 81.0841 155.709L81.0806 166.106C81.0806 166.411 80.859 166.671 80.5576 166.721C78.461 167.062 76.3457 167.236 74.2697 167.236ZM68.7029 165.573C72.4203 166.126 76.1149 166.128 79.8345 165.573L79.8381 155.218C79.8381 154.927 80.039 154.676 80.3211 154.61C81.9205 154.24 83.4045 153.766 84.736 153.201C85.006 153.087 85.3131 153.173 85.4834 153.408L91.5568 161.764C94.8752 160.036 97.8988 157.838 100.56 155.218L94.4763 146.836C94.306 146.602 94.3195 146.281 94.5105 146.062C95.4936 144.93 96.4063 143.67 97.2234 142.319C97.3716 142.07 97.6751 141.956 97.9486 142.048L107.805 145.251C109.486 141.892 110.645 138.335 111.254 134.662L101.402 131.46C101.127 131.37 100.949 131.103 100.974 130.815C101.031 130.132 101.089 129.324 101.089 128.5C101.089 127.676 101.031 126.866 100.974 126.183C100.949 125.895 101.127 125.627 101.402 125.538L111.252 122.336C110.644 118.662 109.486 115.105 107.805 111.749L97.9486 114.951C97.6758 115.039 97.373 114.929 97.2234 114.681C96.4098 113.336 95.4965 112.076 94.5069 110.937C94.3167 110.718 94.3032 110.398 94.4742 110.163L100.56 101.781C97.8995 99.1613 94.8745 96.9619 91.5546 95.2349L85.4826 103.592C85.3109 103.827 85.0031 103.912 84.7353 103.8C83.3966 103.232 81.9112 102.759 80.3183 102.392C80.0361 102.327 79.8352 102.075 79.8352 101.784V91.4275C76.1192 90.871 72.4125 90.871 68.7014 91.4282V101.783C68.7014 102.074 68.5005 102.325 68.2184 102.391C66.6283 102.757 65.1422 103.231 63.8035 103.799C63.5356 103.914 63.2264 103.827 63.0562 103.591L56.9856 95.2342C53.6671 96.9626 50.6407 99.1627 47.9784 101.782L54.0639 110.161C54.2342 110.396 54.2207 110.717 54.0312 110.936C53.0366 112.08 52.124 113.34 51.3147 114.68C51.1651 114.928 50.8623 115.039 50.5894 114.95L40.7366 111.748C39.0553 115.103 37.8976 118.661 37.2892 122.336L47.137 125.538C47.4135 125.627 47.5894 125.895 47.5652 126.183C47.5068 126.867 47.4469 127.678 47.4469 128.499C47.4469 129.323 47.5068 130.133 47.5652 130.816C47.5894 131.105 47.4135 131.372 47.137 131.461L37.2892 134.661C37.8969 138.339 39.0553 141.895 40.7366 145.25L50.5894 142.048C50.8623 141.959 51.1651 142.073 51.3161 142.321C52.119 143.655 53.0331 144.913 54.0312 146.064C54.2207 146.283 54.2342 146.605 54.0639 146.84L47.9798 155.217C50.6422 157.837 53.6685 160.037 56.9856 161.763L63.0576 153.41C63.2279 153.174 63.5357 153.087 63.8042 153.202C65.1393 153.768 66.6247 154.242 68.2206 154.611C68.5027 154.675 68.7036 154.929 68.7036 155.218V165.573H68.7029ZM74.2697 147.695C63.6859 147.695 55.0756 139.085 55.0756 128.5C55.0756 117.916 63.6859 109.305 74.2697 109.305C84.8528 109.305 93.4632 117.916 93.4632 128.5C93.4639 139.085 84.8528 147.695 74.2697 147.695ZM74.2697 110.551C64.3727 110.551 56.3216 118.602 56.3216 128.5C56.3216 138.396 64.3734 146.448 74.2697 146.448C84.166 146.448 92.2172 138.396 92.2172 128.5C92.2179 118.602 84.1668 110.551 74.2697 110.551Z" fill="black"/>
</svg>
