<svg width="195" height="187" viewBox="0 0 195 187" fill="none" xmlns="http://www.w3.org/2000/svg">
<path d="M185.65 53.464L164.883 56.9851C157.271 44.2598 145.719 33.7188 131.39 27.1047L133.733 7.12528C129.235 5.42257 124.554 4.01185 119.697 2.93309C114.843 1.85432 109.986 1.14583 105.163 0.777344L97.9754 19.6806C82.0497 19.5738 66.7905 24.1603 54.0491 32.3659L37.064 20.4576C29.3956 26.2012 22.6089 33.0494 16.9909 40.8295L30.5662 56.1797C26.7292 62.4226 23.7954 69.3117 21.9797 76.7242C20.1603 84.1394 19.5881 91.5519 20.1295 98.7677L0.817322 106.811C2.24124 116.158 5.14049 125.158 9.34866 133.539L30.1146 130.018C37.7278 142.742 49.2781 153.285 63.607 159.899L61.2641 179.876C65.7611 181.579 70.4433 182.99 75.3012 184.069C80.1554 185.149 85.0106 185.857 89.8349 186.221L97.0227 167.321C112.947 167.428 128.206 162.841 140.947 154.635L157.932 166.546C165.6 160.803 172.385 153.954 178.005 146.174L164.429 130.822C168.268 124.58 171.2 117.69 173.018 110.277C174.836 102.865 175.408 95.4513 174.868 88.2355L194.181 80.1902C192.758 70.8471 189.857 61.8458 185.65 53.464ZM145.16 104.087C139.015 129.147 112.701 144.72 86.3765 138.871C60.057 133.024 43.6984 107.972 49.8391 82.912C55.9797 57.8548 82.2993 42.2812 108.619 48.1299C134.939 53.975 151.302 79.0295 145.16 104.087Z" fill="#5AA1A9"/>
<path d="M89.834 187C89.8134 187 89.791 187 89.7695 187C84.8423 186.623 79.9124 185.894 75.1152 184.826C70.318 183.762 65.5554 182.339 60.9611 180.6C60.618 180.472 60.4105 180.14 60.4507 179.791L62.73 160.357C48.8752 153.842 37.4707 143.669 29.6911 130.88L9.49172 134.306C9.1355 134.365 8.76899 134.191 8.61099 133.875C4.32802 125.346 1.43346 116.278 0.00860787 106.925C-0.0446838 106.578 0.153515 106.24 0.491029 106.101L19.2758 98.2735C18.7887 91.0043 19.4301 83.6987 21.1841 76.5496C22.9361 69.3979 25.7578 62.5747 29.5714 56.2623L16.3663 41.3323C16.1298 41.0626 16.1111 40.679 16.3177 40.3897C21.9367 32.6105 28.7459 25.6991 36.5592 19.8461C36.8499 19.6298 37.2529 19.6235 37.5511 19.83L54.0725 31.4152C66.9812 23.2336 81.9496 18.9061 97.4042 18.8999L104.397 0.513735C104.52 0.1853 104.853 -0.0274039 105.231 0.00285847C110.149 0.377577 115.078 1.1083 119.884 2.1755C124.681 3.24091 129.444 4.66235 134.036 6.40332C134.379 6.53149 134.588 6.86262 134.547 7.21152L132.268 26.6471C146.126 33.1624 157.53 43.3367 165.307 56.1217L185.507 52.6985C185.869 52.6344 186.231 52.8124 186.389 53.1293C190.673 61.6677 193.569 70.7339 194.991 80.0779C195.045 80.425 194.846 80.7623 194.509 80.9039L175.722 88.7284C176.209 95.9985 175.567 103.305 173.814 110.453C172.059 117.61 169.237 124.432 165.425 130.74L178.632 145.671C178.868 145.939 178.887 146.325 178.679 146.615C173.059 154.395 166.249 161.306 158.439 167.157C158.146 167.374 157.743 167.378 157.447 167.172L140.925 155.587C128.017 163.769 113.048 168.096 97.5958 168.101L90.6025 186.489C90.4856 186.797 90.1761 187 89.834 187ZM62.1457 179.371C66.4857 180.983 70.9697 182.308 75.4864 183.312C80.004 184.316 84.6404 185.018 89.2786 185.398L96.2543 167.057C96.3711 166.748 96.6796 166.544 97.0227 166.544C97.0236 166.544 97.0256 166.544 97.0293 166.544L97.564 166.545C112.893 166.545 127.736 162.204 140.489 153.992C140.777 153.806 141.152 153.816 141.432 154.011L157.914 165.567C165.229 160.016 171.639 153.511 176.978 146.221L163.803 131.325C163.581 131.073 163.549 130.713 163.723 130.431C167.6 124.125 170.459 117.286 172.22 110.102C173.982 102.925 174.598 95.5855 174.052 88.2914C174.028 87.963 174.224 87.6559 174.54 87.5242L193.28 79.7174C191.881 70.9298 189.157 62.3949 185.179 54.3344L165.026 57.7514C164.682 57.8092 164.342 57.6561 164.171 57.3695C156.458 44.4769 145 34.2509 131.034 27.805C130.721 27.6608 130.538 27.3458 130.577 27.0173L132.852 7.63075C128.512 6.01884 124.029 4.69349 119.512 3.68949C114.988 2.68639 110.35 1.98415 105.72 1.60231L98.744 19.9439C98.628 20.2519 98.3195 20.4575 97.9763 20.4575C97.9745 20.4575 97.9726 20.4575 97.9698 20.4575L97.4379 20.4548C82.1086 20.4548 67.2626 24.7966 54.5082 33.0084C54.2183 33.1926 53.8453 33.1846 53.5639 32.9906L37.0818 21.4348C29.765 26.9879 23.3559 33.4925 18.0193 40.7804L31.1926 55.6758C31.4142 55.9277 31.446 56.2872 31.2721 56.5694C27.3939 62.8817 24.5349 69.7193 22.7763 76.8986C21.0148 84.077 20.3987 91.4147 20.9447 98.7088C20.969 99.039 20.7736 99.3461 20.4567 99.4778L1.7186 107.284C3.11914 116.08 5.84359 124.613 9.81989 132.667L29.9716 129.251C30.3025 129.191 30.6541 129.344 30.8261 129.632C38.5422 142.527 49.9999 152.753 63.9632 159.197C64.2764 159.341 64.4578 159.656 64.4195 159.984L62.1457 179.371ZM97.5425 140.88C93.7439 140.88 89.9256 140.457 86.1914 139.63C59.4727 133.694 42.8092 108.171 49.0425 82.7356C54.3249 61.1782 74.2335 46.1208 97.4547 46.1208C101.253 46.1208 105.072 46.5427 108.804 47.3705C121.747 50.2463 132.74 57.7478 139.757 68.4927C146.774 79.2376 148.975 91.9416 145.957 104.263C140.669 125.824 120.762 140.88 97.5425 140.88ZM97.4547 47.6776C74.9965 47.6776 55.7441 62.2391 50.6356 83.0881C44.6062 107.69 60.7236 132.372 86.5617 138.113C90.1743 138.915 93.8692 139.323 97.5425 139.323C119.997 139.323 139.25 124.758 144.363 103.909C147.283 91.9932 145.155 79.7067 138.368 69.3143C131.581 58.921 120.95 51.6669 108.433 48.8881C104.821 48.0852 101.127 47.6776 97.4547 47.6776Z" fill="black"/>
</svg>
